<svg xmlns="http://www.w3.org/2000/svg" xmlns:xlink="http://www.w3.org/1999/xlink" id="Layer_2" x="0px" y="0px" width="957.721px" height="932px" viewBox="0 0 957.721 932" xml:space="preserve">
<path fill="none" stroke="#000000" stroke-width="5" stroke-linecap="round" stroke-linejoin="round" stroke-miterlimit="10" d="  M438.25,200.5c2.907,2.19,5.654,4.621,8.276,7.141c4.185,4.023,8.179,8.442,11.077,13.501c1.311,2.289,2.406,4.754,2.897,7.358  c0.489,2.594,0.93,5.197,1.36,7.801c0.964,5.838,1.86,11.687,2.872,17.517c0.536,3.085,1.087,6.174,1.803,9.223  c0.352,1.5,0.633,3.757,1.715,4.958"></path>
<path fill="none" stroke="#000000" stroke-width="5" stroke-linecap="round" stroke-linejoin="round" stroke-miterlimit="10" d="  M466,254c3.3-2.919,6.771-5.682,10.389-8.195c3.873-2.689,8.213-5.729,13.141-4.598c4.971,1.141,9.264,4.665,12.394,8.573  c3.274,4.089,5.748,9.151,6.704,14.317c1.029,5.564,0.498,11.388-0.46,16.923c-1.021,5.904-2.639,11.725-4.736,17.335  c-0.827,2.211-1.729,4.402-2.794,6.509c-0.73,1.443-1.519,2.907-2.719,4.018c-1.907,1.765-4.334,2.973-6.648,4.104  c-2.715,1.327-5.508,2.493-8.205,3.857c-1.261,0.638-4.061,1.751-4.315,3.407"></path>
<path fill="none" stroke="#000000" stroke-width="5" stroke-linecap="round" stroke-linejoin="round" stroke-miterlimit="10" d="  M477.5,321.75c-0.588,4.16-1.063,8.347-1.339,12.539c-0.08,1.203-0.14,2.408-0.156,3.613c-0.016,1.166-1.308,2.29-2.048,3.172  c-1.363,1.627-2.823,3.191-4.468,4.539c-3.54,2.897-7.96,4.029-12.157,5.637c-3.968,1.52-7.908,3.118-11.831,4.75  c4.831,4.579,12.059,7.643,18.75,6.5"></path>
<path fill="none" stroke="#000000" stroke-width="5" stroke-linecap="round" stroke-linejoin="round" stroke-miterlimit="10" d="  M451.817,354.883c-0.089,0.997,0.591,1.849,1.021,2.687c0.424,0.829,0.664,1.751,0.695,2.683"></path>
<path fill="none" stroke="#000000" stroke-width="5" stroke-linecap="round" stroke-linejoin="round" stroke-miterlimit="10" d="  M460.5,352.625c1.96,0.419,3.902,0.973,5.793,1.636c2.34,0.821,5.14,1.838,6.782,3.801c1.144,1.367,0.734,2.964,0.24,4.524  c-0.786,2.477-1.962,4.837-3.199,7.115c-2.824,5.2-6.209,10.322-10.382,14.545c-1.607,1.627-3.292,2.848-5.296,3.918  c-2.697,1.441-5.271,3.106-7.762,4.875c-5.092,3.617-9.846,7.683-14.538,11.798c-1.722,1.51-3.386,3.139-5.25,4.477  c-1.755,1.26-3.647,2.33-5.56,3.329c-5.196,2.712-10.684,4.902-16.265,6.682c-5.633,1.796-11.468,3.218-17.378,3.661  c-6.182,0.463-12.175-1.111-18.326-1.429c-2.402-0.124-4.822-0.129-7.215,0.14c-2.304,0.26-4.877,0.735-6.77,2.177"></path>
<path fill="none" stroke="#000000" stroke-width="5" stroke-linecap="round" stroke-linejoin="round" stroke-miterlimit="10" d="  M414.5,330.5c-2.963,7.176-8.243,14.469-15.228,18.127c-9.285,4.864-20.58,0.789-26.875-7.046  c-5.971-7.431-7.396-17.812-5.493-26.958c0.976-4.688,2.87-9.535,6.282-13.001c1.656-1.683,3.594-2.666,5.774-3.52  c2.798-1.097,5.708-1.916,8.666-2.446c2.576-0.461,5.203-0.716,7.821-0.647c2.012,0.053,4.583,0.149,6.307,1.345  c0.432,0.299,0.68,1.15,1.058,1.193c1.434,0.164,2.858-0.397,4.078-1.103c1.935-1.12,3.678-2.711,5.101-4.432  c0.129-0.156-0.93-1.99-1.018-2.176c-0.938-1.967-1.879-3.933-2.824-5.896c-2.697-5.609-5.417-11.208-8.19-16.78  c-2.305-4.631-4.592-9.294-7.161-13.787c-0.344-0.601-0.694-1.2-1.074-1.78c-0.415-0.632-0.583-0.717-0.373-1.497  c0.542-2.006,1.314-3.952,2.129-5.86c2.299-5.382,5.089-10.566,8.102-15.579c3.102-5.162,6.481-10.213,10.402-14.795  c1.602-1.872,3.305-3.681,5.21-5.248c2.045-1.682,4.4-3.002,6.683-4.33c2.106-1.225,4.251-2.389,6.446-3.45  c1.931-0.934,3.937-1.912,6.028-2.427c0.645-0.159,0.833-0.058,1.35-0.547c0.881-0.833,1.632-1.8,2.3-2.809  c1.556-2.35,2.694-4.977,3.516-7.667c0.875-2.866,1.384-5.85,1.474-8.846c0.065-2.15-0.673-4.058-2.556-5.223  c-2.397-1.483-5.562-1.532-8.259-1.091c-2.585,0.422-6.29,1.494-7.509,4.107c0-5.193-5.487-7.223-9.906-6.918  c-2.886,0.199-5.366,1.292-7.842,2.708c-2.52,1.44-5.066,2.833-7.613,4.224c-2.571,1.404-5.151,2.792-7.7,4.238  c-0.845,0.479-1.693,0.958-2.507,1.488c-0.217,0.141-0.438,0.283-0.633,0.454c-0.304,0.265-1.047-0.53-1.381-0.753  c-2.13-1.421-4.507-2.505-7.008-3.077c-0.822-0.188-1.671-0.339-2.516-0.362c-0.193-0.005-0.465,0.298-0.609,0.405  c-4.863,3.605-9.661,7.311-14.326,11.17c-2.667,2.206-5.319,4.454-7.764,6.907c-0.85,0.853-1.693,1.734-2.402,2.711  c-0.345,0.476-0.877,1.172-0.791,1.806c-1.493-1.813-3.373-4.186-6.024-3.563c-2.801,0.658-4.676,3.501-6.365,5.584  c-2.287,2.821-4.648,5.582-6.914,8.42c-1.03,1.29-2.059,2.594-2.948,3.985c-0.451,0.705-1.15,1.684-1.082,2.573  c-2.931-1.08-6.579,1.514-8.558,3.416c-2.72,2.615-4.058,5.827-5.072,9.39c-1.121,3.939-2.286,7.874-3.141,11.882  c-0.421,1.975-0.785,3.982-0.873,6.003c-0.059,1.36-0.047,2.922,0.644,4.144c-1.206-0.232-3.908-0.758-4.776,0.56  c-0.486,0.738-0.76,1.718-1.063,2.537c-1.604,4.325-2.611,9.025-2.322,13.656c0.324,5.188,2.916,9.999,4.956,14.691  c1.417,3.259,2.862,6.507,4.372,9.724c-3.181-0.181-3.332,3.301-2.838,5.527c1.012,4.561,3.549,9.198,6.344,12.906  c2.563,3.399,5.976,6.444,10.223,7.426c0.493,0.114,0.992,0.199,1.494,0.255c0.203,0.022,0.407,0.04,0.611,0.053  c0,0.376-0.004,0.752-0.013,1.128c-0.028,1.196-0.102,2.39-0.226,3.58c-0.156,1.495-0.365,3.006-0.761,4.459  c2.722-0.278,5.445-0.555,8.167-0.833c-0.25,1.851-0.593,3.697-1.041,5.51c-0.293,1.182-0.627,2.371-1.128,3.484  c-0.293,0.654-0.736,1.622-1.498,1.839c3.083,1.063,6.717,0.908,9.919,0.679c1.853-0.132,3.717-0.352,5.524-0.795  c0.842-0.206,2.447-0.5,2.89-1.384c1.427,3.502,0.994,7.897,0.167,11.5c2.991,0.562,6.302-0.206,8.83-1.868  c3.23-2.123,5.137-5.661,6.17-9.299"></path>
<path fill="none" stroke="#000000" stroke-width="5" stroke-linecap="round" stroke-linejoin="round" stroke-miterlimit="10" d="  M397.238,309.717c-1.267,1.824-2.842,3.636-3.572,5.759c-0.766,2.224-0.97,4.705-1.145,7.037c-0.355,4.734,0.184,9.872,3.264,13.696  "></path>
<path fill="none" stroke="#000000" stroke-width="5" stroke-linecap="round" stroke-linejoin="round" stroke-miterlimit="10" d="  M393.179,319.852c0.019,0.725,0.919,1.089,1.367,1.525c0.65,0.633,1.207,1.301,1.958,1.829c1.424,1.001,3.077,1.611,4.7,2.204"></path>
<path fill="none" stroke="#000000" stroke-width="4" stroke-linecap="round" stroke-linejoin="round" stroke-miterlimit="10" d="  M429.07,266.586c-0.604-2.864-1.193-5.731-1.813-8.592c-0.636-2.937-1.374-5.889-2.74-8.583c2.212,12.978-0.625,26.06-1.914,38.974  c-0.128,1.295-0.253,2.7,0.339,3.908c0.595,1.214,1.847,1.999,3.2,1.544c2.751-0.926,3.209-5.079,3.679-7.483  c0.617-3.16,0.943-6.414,0.806-9.635c-0.139-3.292-0.799-6.531-1.475-9.747C429.125,266.844,429.098,266.715,429.07,266.586  C428.82,265.4,429.423,268.26,429.07,266.586z"></path>
<path fill="none" stroke="#000000" stroke-width="4" stroke-linecap="round" stroke-linejoin="round" stroke-miterlimit="10" d="  M479.77,308.904c0.236,0.854,0.569,1.681,0.995,2.458c0.262-0.729,0.395-1.503,0.393-2.277c0.613,0.345,1.139,0.847,1.51,1.445  c0.27-0.88,0.386-1.809,0.345-2.729c0.933,0.22,1.818,0.637,2.581,1.218c0.309-1.097,0.399-2.253,0.263-3.385  c0.503,0.499,1.005,0.997,1.508,1.495c0.235-0.838-0.255-1.878,0.201-2.654c0.617-1.05,1.852-0.035,2.353,0.557  c0.133-1.449,0.44-2.883,0.911-4.26c0.736,0.849,1.473,1.696,2.209,2.545c0.283-1.774,0.566-3.548,0.85-5.323  c0.555,0.458,1.108,0.916,1.663,1.373c0.055-1.769,0.106-3.538,0.159-5.306c0.562,0.607,1.123,1.213,1.684,1.821  c0.551-1.643,0.75-3.402,0.584-5.126c0.686,1.114,1.303,2.269,1.846,3.459"></path>
<path fill="none" stroke="#000000" stroke-width="3" stroke-linecap="round" stroke-linejoin="round" stroke-miterlimit="10" d="  M437.5,297c-1.155,3.48-2.373,6.942-3.639,10.383c-1.577,4.287-3.106,8.752-5.361,12.742"></path>
<path fill="none" stroke="#000000" stroke-width="3" stroke-linecap="round" stroke-linejoin="round" stroke-miterlimit="10" d="  M441.5,302.625c-1.315,3.315-2.695,6.606-4.129,9.872c-0.994,2.263-2.016,4.516-3.116,6.729c-0.851,1.712-1.713,3.498-2.88,5.024"></path>
<path fill="none" stroke="#000000" stroke-width="3" stroke-linecap="round" stroke-linejoin="round" stroke-miterlimit="10" d="  M444.625,307.125c0,0.824-0.436,1.807-0.649,2.59c-0.54,1.985-1.122,3.96-1.744,5.922c-1.073,3.382-2.147,7.019-3.989,10.093"></path>
<path fill="none" stroke="#000000" stroke-width="3" stroke-linecap="round" stroke-linejoin="round" stroke-miterlimit="10" d="  M410.354,338.105c-0.08,0.133-0.161,0.265-0.243,0.395"></path>
<path fill="none" stroke="#000000" stroke-width="5" stroke-linecap="round" stroke-linejoin="round" stroke-miterlimit="10" d="  M339.375,342.875c-1.402,8.51-1.384,17.406-0.805,25.988c0.827,12.263,3.568,24.199,7.273,35.892  c1.656,5.228,3.483,10.403,5.473,15.513c0.524,1.346,1.058,2.688,1.614,4.021c0.337,0.809-0.271,1.008-0.958,1.479  c-4.382,3.007-8.97,5.68-13.233,8.869c-3.994,2.989-8.771,6.601-10.739,11.363"></path>
<path fill="none" stroke="#000000" stroke-width="5" stroke-linecap="round" stroke-linejoin="round" stroke-miterlimit="10" d="  M337,408.5c-2.854,7.542-5.141,15.329-7.167,23.129c-3.116,11.997-5.197,24.122-6.348,36.459  c-0.779,8.353-1.532,16.795-1.376,25.193c0.022,1.207,0.039,2.437,0.21,3.635c0.033,0.227-1.719,0.432-1.927,0.469  c-4.938,0.865-9.996,1.167-15.003,0.941c-4.493-0.202-8.979-0.858-13.301-2.115c-4.652-1.353-9.075-3.499-13.435-5.586  c-5.512-2.638-11.149-5.427-16.153-8.959"></path>
<path fill="none" stroke="#000000" stroke-width="5" stroke-linecap="round" stroke-linejoin="round" stroke-miterlimit="10" d="  M297.667,399.167c-9.409,16.88-18.754,33.873-27.111,51.303c-2.349,4.901-4.465,9.806-6.072,15.002  c-0.797,2.578-1.525,5.184-2.085,7.825c-0.38,1.794-0.813,3.692-0.731,5.536"></path>
<path fill="none" stroke="#000000" stroke-width="5" stroke-linecap="round" stroke-linejoin="round" stroke-miterlimit="10" d="  M265.833,465.5c8.446,3.509,16.751,7.388,25,11.333c9.071,4.339,19.373,7.295,29.453,7.823c0.071,0.004,0.143,0.007,0.214,0.01"></path>
<path fill="none" stroke="#000000" stroke-width="5" stroke-linecap="round" stroke-linejoin="round" stroke-miterlimit="10" d="  M324.333,480.833c4.229,1.212,8.546,2.171,12.88,2.917c5.87,1.011,11.848,1.743,17.633-0.076c2.599-0.817,5.109-2.003,7.36-3.54  c0.898-0.613,3.132-1.931,3.125-3.234c-0.016-3.236-0.056-6.472-0.086-9.708c-0.134-14.341-0.273-28.683-0.413-43.024"></path>
<path fill="none" stroke="#000000" stroke-width="5" stroke-linecap="round" stroke-linejoin="round" stroke-miterlimit="10" d="  M325,465.167c6.493,1.337,13.17,2.699,19.807,2.982c3.794,0.161,7.626-0.661,11.3-1.521c2.823-0.661,5.63-1.418,8.394-2.295"></path>
<path fill="none" stroke="#000000" stroke-width="5" stroke-linecap="round" stroke-linejoin="round" stroke-miterlimit="10" d="  M267.333,489.667c-1.776,7.784-3.443,15.595-5.036,23.419c-2.241,11-4.524,22.082-5.739,33.253  c-0.519,4.774-0.406,9.536-0.185,14.328c0.282,6.1,0.784,12.203,1.628,18.251c0.591,4.236,1.23,8.274,3.418,12.002  c2.984,5.081,6.792,9.838,11.026,13.932c2.042,1.975,4.291,3.938,6.887,5.149"></path>
<path fill="none" stroke="#000000" stroke-width="5" stroke-linecap="round" stroke-linejoin="round" stroke-miterlimit="10" d="  M277.5,611c-1.66,3.921-3.45,7.792-5.348,11.603c-1.307,2.624-2.671,5.227-4.188,7.736c-1.126,1.863-2.331,3.857-3.964,5.328  c-4.09,3.681-6.684,9.804-7.45,15.163c-0.342,2.396-0.315,4.99,1.152,7.026c1.379,1.914,3.547,3.154,5.802,3.738  c4.595,1.189,9.424-0.279,13.207-2.969c3.694-2.626,6.419-6.501,8.672-10.373c2.68-4.608,4.775-9.58,6.284-14.69  c1.386-4.695,2.353-9.646,2.167-14.563"></path>
<path fill="none" stroke="#000000" stroke-width="5" stroke-linecap="round" stroke-linejoin="round" stroke-miterlimit="10" d="  M267.833,663.333c3.007,4.135,9.045,5.155,13.81,4.768c5.479-0.444,10.359-2.902,13.998-7.004  c7.635-8.606,10.332-20.621,11.564-31.738c0.234-2.112,0.573-4.407,0.294-6.524"></path>
<path fill="none" stroke="#000000" stroke-width="5" stroke-linecap="round" stroke-linejoin="round" stroke-miterlimit="10" d="  M300,657.167c3.482-1.497,6.577-4.191,8.936-7.123c3.464-4.306,4.907-9.352,6.115-14.647c1.373-6.019,2.434-12.125,3.057-18.268  c0.537-5.29,1.013-10.994-0.218-16.228c-0.596-2.535-1.09-5.068-1.428-7.652c-0.284-2.174-0.419-4.503-1.471-6.472  c-1.235-2.31-3.546-3.932-5.827-5.097c-0.236-0.121-2.286-0.888-2.159-1.266c0.266-0.791,1.28-1.136,1.35-2.085  c0.148-2.017-3.766-2.804-5.122-3.145c-2.388-0.6-5.165-0.793-7.291-2.133c-3.102-1.954-1.272-6.254-0.506-9.002  c3.208-11.5,7.167-22.787,10.693-34.191c1.303-4.214,2.719-8.464,3.574-12.798c1.086-5.507,2.737-10.672,5.241-15.71  c0.337-0.68,0.685-1.355,1.056-2.018"></path>
<path fill="none" stroke="#000000" stroke-width="5" stroke-linecap="round" stroke-linejoin="round" stroke-miterlimit="10" d="  M339,582.5c1.164,3.801,2.105,7.682,2.908,11.573c1.138,5.522,2.06,11.227,1.853,16.883c-0.178,4.836-0.981,10.258-3.779,14.336  c-2.716,3.959-7.208,5.728-11.814,6.375c-3.422,0.481-10.408,0.476-10.333-4.667"></path>
<path fill="none" stroke="#000000" stroke-width="5" stroke-linecap="round" stroke-linejoin="round" stroke-miterlimit="10" d="  M344,620.833c5.949-6.52,10.042-15.58,10.841-24.362c0.531-5.83-0.523-11.604-2.962-16.916c-2.262-4.926-5.498-9.341-9.024-13.43  c-3.583-4.155-7.7-7.87-11.118-12.163c-1.431-1.797-2.443-3.862-3.45-5.917c-0.947-1.932-2.006-4.108-1.894-6.315  c0.079-1.557,0.917-2.952,1.406-4.41c0.605-1.8,1.145-3.623,1.68-5.445c1.677-5.708,3.24-11.449,4.758-17.201  c1.547-5.857,3.047-11.729,4.41-17.634c0.525-2.272,1.033-4.551,1.466-6.843c0.248-1.315,0.553-2.686,0.553-4.03"></path>
<path fill="none" stroke="#000000" stroke-width="5" stroke-linecap="round" stroke-linejoin="round" stroke-miterlimit="10" d="  M323.295,488.563c0.552-1.118,1.444-2.063,2.527-2.68c0.45-0.256,0.79-0.642,1.263-0.873c0.356-0.174,0.434-0.127,0.618-0.438  c0.117-0.198,0.397-0.32,0.613-0.202"></path>
<path fill="none" stroke="#000000" stroke-width="3" stroke-linecap="round" stroke-linejoin="round" stroke-miterlimit="10" d="  M264.591,653.081c0.042,0.76,3.247,0.429,3.875,0.535c1.9,0.323,3.677,1.151,5.592,1.408c0.065-1.119,0.511-2.877-0.067-3.916  c-0.599-1.074-2.549-1.507-3.64-1.798c-1.468-0.393-2.829-0.353-4.171,0.396c-0.463,0.259-1.332,0.411-1.457,0.902  C264.518,651.415,264.554,652.257,264.591,653.081C264.594,653.135,264.57,652.608,264.591,653.081z"></path>
<path fill="none" stroke="#000000" stroke-width="3" stroke-linecap="round" stroke-linejoin="round" stroke-miterlimit="10" d="  M335.379,617.068c-0.206-0.143-0.48-0.24-0.843-0.284c-1.377-0.165,0.219,0.026,0,0c-2.604-0.312-5.427-0.26-7.773,1.052  c-0.914,0.512-1.857,1.296-2.081,2.374c-0.242,1.169,0.611,2.512,1.575,3.12c1.147,0.725,2.534,0.079,3.67-0.352  c1.285-0.487,2.543-1.055,3.864-1.44c0.596-0.175,1.203-0.31,1.82-0.381c0.186-0.61,0.299-1.243,0.337-1.88  c0.017-0.278,0.028-0.546,0.02-0.797"></path>
<path fill="none" stroke="#000000" stroke-width="3" stroke-linecap="round" stroke-linejoin="round" stroke-miterlimit="10" d="  M344.11,618.25c-0.02-0.605-0.151-1.108-0.589-1.412"></path>
<path fill="none" stroke="#000000" stroke-width="5" stroke-linecap="round" stroke-linejoin="round" stroke-miterlimit="10" d="  M332.5,338.875c-3.811,1.393-7.254,4.265-9.721,7.443c-1.619,2.085-2.577,4.478-3.946,6.707c-1.386,2.256-3.089,4.318-4.93,6.215  c-3.89,4.009-8.795,7.9-14.3,9.316c-2.24,0.576-4.726,0.661-6.801-0.498c-2.202-1.229-4.161-3.317-5.548-5.399  c-2.817-4.227-3.279-9.403-1.809-14.211c1.44-4.708,4.438-8.973,7.432-12.82c3.437-4.416,7.35-8.521,11.772-11.961  c4.186-3.257,9.038-6.095,14.351-6.916"></path>
<path fill="none" stroke="#000000" stroke-width="5" stroke-linecap="round" stroke-linejoin="round" stroke-miterlimit="10" d="  M305.875,322.25c-8.35,0.46-16.956,3.671-23.946,8.173c-4.947,3.187-9.121,7.311-12.763,11.913c-2.716,3.431-5.183,7.21-6.57,11.389  c-1.07,3.223-1.441,6.776-0.299,10.032c1.339,3.819,5.119,6.236,8.596,7.937c1.646,0.805,3.451,1.582,5.29,1.784  c1.574,0.174,3-0.719,4.285-1.522c3.038-1.898,5.85-4.213,8.532-6.581"></path>
<path fill="none" stroke="#000000" stroke-width="5" stroke-linecap="round" stroke-linejoin="round" stroke-miterlimit="10" d="  M277.75,331.375c-3.774,1.498-7.475,3.209-11.094,5.047c-4.948,2.513-10.072,5.291-14.116,9.15  c-3.895,3.718-6.915,9.184-8.041,14.443c-1.102,5.149,0.17,11.064,5.266,13.593c4.972,2.467,10.819,0.065,15.484-1.983"></path>
<path fill="none" stroke="#000000" stroke-width="5" stroke-linecap="round" stroke-linejoin="round" stroke-miterlimit="10" d="  M253.625,342c-3.072,1.643-6.059,3.47-8.943,5.421c-2.09,1.415-4.136,2.912-6.033,4.58c-1.623,1.426-3.289,3.027-4.284,4.975  c-1.003,1.963-1.237,4.522-1.475,6.687c-0.225,2.035-0.468,4.522,0.426,6.436c0.836,1.791,2.956,1.248,4.518,0.879  c1.931-0.456,3.827-1.111,5.667-1.852"></path>
<path fill="none" stroke="#000000" stroke-width="3" stroke-linecap="round" stroke-linejoin="round" stroke-miterlimit="10" d="  M246.086,358.035c1.509-0.955,9.626-3.882,8.894,0.094c-0.313,1.701-2.034,3.208-3.634,3.658c-1.763,0.494-3.712,0.493-5.528,0.663"></path>
<path fill="none" stroke="#000000" stroke-width="3" stroke-linecap="round" stroke-linejoin="round" stroke-miterlimit="10" d="  M264.067,353.138c1.281-0.069,2.258-1.084,3.473-1.388c1.361-0.341,2.885-0.265,4.279-0.299c0.96-0.024,2.95-0.437,3.744,0.255  c0.864,0.754,1.231,2.369,1.367,3.445c0.186,1.47-0.153,2.142-1.601,2.471c-1.354,0.309-2.761,0.279-4.108,0.621  c-1.403,0.356-2.665,1.09-3.991,1.646c-1.035,0.434-2.537,1.033-3.638,0.482"></path>
<path fill="none" stroke="#000000" stroke-width="3" stroke-linecap="round" stroke-linejoin="round" stroke-miterlimit="10" d="  M287.122,347.559c1.118-0.179,2.375-0.453,2.794-0.674c0.932-0.492,1.895-0.924,2.882-1.292c1.82-0.68,3.998-1.412,5.965-1.375  c2.01,0.041,2.398,2.617,2.519,4.173c0.166,2.125-0.299,4.301-1.349,6.159c-1.943-1.635-3.905-1.774-6.359-1.513  c-2.512,0.268-4.973,1.017-7.204,2.205"></path>
<path fill="none" stroke="#000000" stroke-width="3" stroke-linecap="round" stroke-linejoin="round" stroke-miterlimit="10" d="  M285.36,347.75c0.332,0.007,1.016-0.071,1.761-0.191"></path>
<path fill="none" stroke="#000000" stroke-width="5" stroke-linecap="round" stroke-linejoin="round" stroke-miterlimit="10" d="  M231.667,372c-3.467,1.194-6.859,2.634-10.214,4.108c-8.814,3.873-17.382,8.314-25.684,13.186  c-16.888,9.909-32.728,21.683-46.851,35.257c-15.622,15.016-29.096,32.293-39.323,51.42c-0.661,1.237-1.309,2.481-1.943,3.732  c-0.233,0.46-0.42,0.507-0.062,0.936c0.253,0.304,0.507,0.607,0.761,0.912c0.582,0.696,1.163,1.393,1.745,2.089  c1.966,2.353,3.934,4.704,5.907,7.05c3.468,4.122,6.954,8.23,10.499,12.287c5.566,6.369,11.271,12.658,17.515,18.377  c6.316,5.784,13.258,10.821,20.953,14.618c9.697,4.783,20.178,7.675,30.627,10.289c10.566,2.644,21.223,4.94,31.954,6.806  c7.855,1.365,15.773,2.596,23.726,3.236c0.13,0.011,0.26,0.021,0.391,0.03"></path>
<path fill="none" stroke="#000000" stroke-width="5" stroke-linecap="round" stroke-linejoin="round" stroke-miterlimit="10" d="  M155.5,531.5c-8.206-2.475-16.21-6.086-23.639-10.34c-4.954-2.837-9.713-6.079-13.94-9.928c-3.757-3.422-7.475-6.89-11.206-10.341  c-2.298-2.125-4.602-4.246-6.881-6.392c-3.16,7.813-5.219,16.23-6.38,24.563c-0.822,5.9-1.125,11.91-0.517,17.847  c0.609,5.939,2.281,11.804,4.128,17.466c3.488,10.692,8.651,20.758,15.668,29.568c3.536,4.439,7.483,8.543,11.707,12.331  c4.007,3.593,8.294,6.866,12.417,10.323c8.861,7.43,17.527,15.092,26.209,22.729c8.396,7.384,16.712,14.912,25.464,21.876  c1.313,1.045,2.639,2.079,4.021,3.031c0.747,0.516,1.56,1.123,2.44,1.39c1.147,0.348,2.185-0.721,2.85-1.505  c1.458-1.722,2.536-3.781,3.6-5.758c5.331-9.906,10.161-20.095,17.558-28.694c6.355-7.388,13.617-14.02,21.186-20.142  c3.663-2.963,7.423-5.818,11.334-8.448c2.414-1.622,5.014-3.505,7.813-4.41"></path>
<path fill="none" stroke="#000000" stroke-width="5" stroke-linecap="round" stroke-linejoin="round" stroke-miterlimit="10" d="  M108.667,484c-1.06,1.622-2.01,3.327-2.855,5.069c-1.066,2.199-2.238,4.762-2.145,7.264"></path>
<path fill="none" stroke="#000000" stroke-width="5" stroke-linecap="round" stroke-linejoin="round" stroke-miterlimit="10" d="  M151,532c0,1-0.368,1.991-0.544,2.968c-0.209,1.158-0.249,2.342-0.021,3.5c0.36,1.836,1.319,3.495,2.476,4.944  c2.211,2.768,5.209,4.966,7.796,7.385c7.558,7.065,14.91,14.355,22.272,21.623c12.793,12.63,25.487,25.359,38.189,38.08"></path>
<path fill="none" stroke="#000000" stroke-width="5" stroke-linecap="round" stroke-linejoin="round" stroke-miterlimit="10" d="  M138.333,527.167c0.345,2.552-0.077,5.128,0.272,7.67c0.242,1.757,0.91,3.408,1.768,4.95c1.681,3.023,3.942,5.648,6.241,8.211  c6.723,7.492,13.784,14.692,20.858,21.853c8.973,9.081,18.073,18.046,27.413,26.75c3.983,3.712,8.01,7.382,12.153,10.915  c2.891,2.466,5.83,4.947,9.02,7.024c0.73,0.476,1.48,0.936,2.275,1.294"></path>
<path fill="none" stroke="#000000" stroke-width="5" stroke-linecap="round" stroke-linejoin="round" stroke-miterlimit="10" d="  M128.167,521.333c-0.28,2.432-0.991,4.803-1.33,7.229c-0.369,2.643-0.44,5.344,0.071,7.973c0.706,3.636,2.526,6.583,4.946,9.283  c6.023,6.719,12.605,12.968,19.073,19.25c17.344,16.848,34.947,33.464,52.905,49.655c2.971,2.679,5.898,5.62,9.168,7.943"></path>
<path fill="none" stroke="#000000" stroke-width="5" stroke-linecap="round" stroke-linejoin="round" stroke-miterlimit="10" d="  M311.5,651c3.076,0.412,6.343,0.332,9.435,0.343c3.256,0.011,7.333-0.14,10.232-1.843c-3.331,8.815-6.653,17.635-9.953,26.463  c-1.713,4.584-3.418,9.17-5.086,13.771c-0.687,1.896-1.373,3.791-2.051,5.689c-0.356,0.997-0.506,2.238-1.322,2.949  c-3.713,3.236-9.438,6.482-14.42,4.295c-4.673-2.052-8.42-6.254-11.053-10.53c-0.203-0.328-0.343-0.382-0.126-0.683  c0.541-0.75,1.074-1.505,1.604-2.262c1.628-2.331,3.216-4.692,4.735-7.097c1.429-2.264,2.854-4.556,3.94-7.008  c1.131-2.555,2.042-5.208,2.892-7.867c1.183-3.701,2.245-7.447,3.174-11.221"></path>
<path fill="none" stroke="#000000" stroke-width="5" stroke-linecap="round" stroke-linejoin="round" stroke-miterlimit="10" d="  M334.5,631.833c-0.219,2.56-0.588,5.114-1.071,7.637c-0.604,3.15-1.311,6.639-3.096,9.363"></path>
<path fill="none" stroke="#000000" stroke-width="5" stroke-linecap="round" stroke-linejoin="round" stroke-miterlimit="10" d="  M207.667,640.833c4.231,1.948,8.475,4.406,11.923,7.561c1.892,1.73,3.657,3.846,3.713,6.531c0.045,2.172-0.783,4.32-1.479,6.344  c-1.872,5.438-3.342,10.998-5.104,16.473c-1.436,4.459-2.938,8.897-4.511,13.311c-0.014,0.038-0.027,0.077-0.041,0.115"></path>
<path fill="none" stroke="#000000" stroke-width="5" stroke-linecap="round" stroke-linejoin="round" stroke-miterlimit="10" d="  M260.5,661.167c-3.644,6.247-7.384,12.439-11.216,18.572c-2.572,4.116-5.182,8.214-7.948,12.203  c-1.09,1.572-2.203,3.134-3.398,4.629c-0.728,0.91-1.49,1.9-2.438,2.596"></path>
<path fill="none" stroke="#000000" stroke-width="5" stroke-linecap="round" stroke-linejoin="round" stroke-miterlimit="10" d="  M197.5,654.5c0.42,0.14,1-0.311,1.314-0.524c0.831-0.568,1.588-1.249,2.327-1.931c1.73-1.598,3.362-3.303,4.961-5.03  c0.777-0.839,1.215-1.305,1.584-2.358c0.271-0.774,0.542-1.548,0.813-2.322"></path>
<path fill="none" stroke="#000000" stroke-width="5" stroke-linecap="round" stroke-linejoin="round" stroke-miterlimit="10" d="  M211.5,686.667c-2.157,0.43-4.461,1.684-6.087,3.137c-0.865,0.773-1.611,1.731-1.922,2.865c-0.362,1.319-0.141,2.839-0.129,4.194  c0.009,1.029,0.045,2.103-0.182,3.113c-0.236,1.049-0.897,1.574-1.675,2.228c-2.015,1.693-3.97,3.615-5.38,5.851  c-0.64,1.015-1.22,2.182-1.257,3.404c-0.038,1.263,0.605,2.352,0.253,3.643c-0.651,2.388-3.338,3.996-5.012,5.625  c-1.603,1.561-2.906,3.441-4.199,5.256c-1.762,2.472-3.451,4.997-5.098,7.546c-1.272,1.968-2.578,3.94-3.691,6.005  c-0.663,1.229,0.093,2.839,0.709,3.962c2.067,3.771,6.387,5.532,10.412,6.277c5.004,0.928,10.638,1.297,15.618,0.016  c2.218-0.57,4.51-1.596,5.877-3.517c1.547-2.175,1.931-5.294,2.653-7.813c0.592-2.068,1.283-4.116,2.286-6.025  c0.99-1.885,2.266-3.641,3.405-5.439c1.895-2.991,4.296-5.325,7.084-7.494c3.272-2.546,6.3-5.517,8.744-8.872  c2.332-3.203,4.716-7.551,3.423-11.628"></path>
<path fill="none" stroke="#000000" stroke-width="5" stroke-linecap="round" stroke-linejoin="round" stroke-miterlimit="10" d="  M212.833,692.667c2.506,2.803,5.729,5.269,9.199,6.737c3.101,1.312,7.674,2.245,10.801,0.429"></path>
<path fill="none" stroke="#000000" stroke-width="5" stroke-linecap="round" stroke-linejoin="round" stroke-miterlimit="10" d="  M212.5,744.667c1.21,1.743,1.985,4.075,1.583,6.198c-0.25,1.32-1.04,2.472-1.751,3.586c-0.851,1.332-1.754,2.631-2.647,3.935  c-0.798,1.166-1.601,2.333-2.325,3.548c-0.608,1.021-0.965,2.093-1.466,3.16c-1.162,2.474-3.315,4.551-6.062,5.073"></path>
<path fill="none" stroke="#000000" stroke-width="5" stroke-linecap="round" stroke-linejoin="round" stroke-miterlimit="10" d="  M214.333,755.667c4.604,0.589,9.336,0.917,13.973,0.605c2.342-0.156,4.652-0.566,7.001-0.691c3.026-0.162,6.063-0.173,9.091-0.089  c5.559,0.154,11.587,0.342,16.895,2.174c2.567,0.887,5.046,1.604,7.722,2.121c2.793,0.54,5.602,1.077,8.283,2.053  c3.809,1.386,7.142,3.73,9.368,7.16c2.51,3.866,5.068,7.725,6.936,11.954c3.543,8.025,3.86,16.698,2.064,25.213"></path>
<path fill="none" stroke="#000000" stroke-width="5" stroke-linecap="round" stroke-linejoin="round" stroke-miterlimit="10" d="  M178.833,733.667c-2.805-0.075-5.677,0.15-8.416,0.762c-2.517,0.562-5.931,1.65-6.754,4.435c-0.229,0.772-0.188,1.603-0.298,2.396  c-0.121,0.869-0.312,1.727-0.544,2.572c-0.42,1.528-0.98,3.019-1.333,4.565c-0.725,3.175-0.098,6.218,1.345,9.104"></path>
<path fill="none" stroke="#000000" stroke-width="5" stroke-linecap="round" stroke-linejoin="round" stroke-miterlimit="10" d="  M159.833,753.167c-6.187,7.229-12.226,14.626-17.853,22.302c-6.733,9.186-12.684,19.807-14.366,31.236  c-0.157,1.066-0.265,2.143-0.28,3.222c-0.005,0.331,0.148,0.377,0.398,0.59c1.064,0.907,2.182,1.751,3.32,2.563  c4.038,2.878,8.392,5.316,12.912,7.35c9.958,4.48,20.648,6.775,31.547,7.109c9.223,0.283,18.452,0.14,27.63-0.864  c4.963-0.543,9.901-1.309,14.881-1.696c5.649-0.438,11.332-0.347,16.994-0.468c11.783-0.253,23.604-0.582,35.346-1.632  c4.59-0.41,9.274-0.821,13.544-2.684c3.771-1.645,7.444-4.187,10.09-7.36"></path>
<path fill="none" stroke="#000000" stroke-width="5" stroke-linecap="round" stroke-linejoin="round" stroke-miterlimit="10" d="  M125,807.167c-0.49,0.371-2.042,1.319-1.999,2.037c0.048,0.785,0.163,1.571,0.251,2.353c0.344,3.035,0.704,6.068,1.063,9.103  c0.135,1.136,0.27,2.271,0.405,3.407c0.025,0.209-0.025,0.857,0.183,0.975c1.156,0.649,2.352,1.233,3.551,1.799  c9.802,4.627,20.335,7.678,30.986,9.579c12.125,2.164,24.441,2.864,36.741,2.38c6.106-0.24,12.188-0.899,18.297-1.063  c5.74-0.153,11.48,0.051,17.21,0.384c11.465,0.667,22.846,1.847,34.34,1.105c5.93-0.382,11.857-1.064,17.694-2.191  c4.619-0.892,9.75-1.891,13.811-4.403c2.774-1.716,3.934-5.217,5.063-8.119c1.416-3.639,2.387-7.453,2.891-11.324  c0.216-1.654,0.351-3.323,0.364-4.991c0.006-0.791,0.094-1.079-0.437-1.632c-1.388-1.443-2.781-2.883-4.187-4.309  c-0.708-0.719-1.417-1.435-2.141-2.138c-0.326-0.317-0.804-0.969-1.255-1.119"></path>
<path fill="none" stroke="#000000" stroke-width="5" stroke-linecap="round" stroke-linejoin="round" stroke-miterlimit="10" d="  M164.333,761.167c-1.611-0.889-3.222-1.777-4.833-2.667c-0.236,4.559-0.145,9.318,0.833,13.791c0.495,2.262,1.57,4.23,2.384,6.377  c1.017,2.681,1.816,5.447,2.483,8.234c1.356,5.676,2.278,11.62,1.505,17.448c-0.743,5.605-1.992,11.155-3.388,16.631  c-0.158,0.618-0.318,1.235-0.484,1.852c3.594-7.502,9.312-14.41,15.782-19.602c7.911-6.349,19.533-11.695,29.541-7.149  c9.412,4.275,13.162,15.301,13.677,24.918"></path>
<path fill="none" stroke="#000000" stroke-width="5" stroke-linecap="round" stroke-linejoin="round" stroke-miterlimit="10" d="  M185.875,825.25c-0.05-2.483,0.74-5.121,2.246-7.104c1.827-2.404,4.677-3.555,7.629-3.771c2.55-0.187,5.39,0.377,6.561,2.914  c1.033,2.236,0.68,5.063-0.061,7.336"></path>
<path fill="none" stroke="#000000" stroke-width="5" stroke-linecap="round" stroke-linejoin="round" stroke-miterlimit="10" d="  M275.375,763.125c2.018,4.794,2.021,10.797-1.533,14.855c-3.425,3.91-8.705,6.475-13.592,8.02"></path>
<path fill="none" stroke="#000000" stroke-width="5" stroke-linecap="round" stroke-linejoin="round" stroke-miterlimit="10" d="  M254.75,790.25c-2.573,0.83-4.702,3.387-6.292,5.439c-2.211,2.853-4.022,6.124-4.985,9.615c-0.921,3.34-0.869,6.978-0.906,10.42  c-0.025,2.382,0,4.774,0.183,7.15"></path>
<path fill="none" stroke="#000000" stroke-width="5" stroke-linecap="round" stroke-linejoin="round" stroke-miterlimit="10" d="  M195.625,771.875c0.246,0,0.619-0.341,0.811-0.463c0.577-0.367,1.153-0.732,1.742-1.079c1.508-0.888,3.109-1.707,4.819-2.125  c2.392-0.584,5.217,0.036,7.628,0.417"></path>
<path fill="none" stroke="#000000" stroke-width="4" stroke-linecap="round" stroke-linejoin="round" stroke-miterlimit="10" d="  M217,761.813c-1.038,0.968-1.942,2.105-2.705,3.3c-1.146,1.795-1.619,3.671-2.175,5.697c-0.22,0.802-0.465,1.596-0.704,2.392  c-0.167,0.558-0.58,1.452-0.334,2.036c0.2,0.476,1.259,0.512,1.67,0.582c1.182,0.204,2.38,0.346,3.577,0.43  c0.2,0.015,1.7,0.224,1.795-0.062c0.153-0.458,0.333-0.908,0.501-1.361c0.795-2.147,1.587-4.295,2.35-6.454  c0.295-0.836,0.59-1.672,0.856-2.518c0.145-0.46,0.375-0.906,0.029-1.324c-1.075-1.3-3.05-2.081-4.547-2.78"></path>
<path fill="none" stroke="#000000" stroke-width="4" stroke-linecap="round" stroke-linejoin="round" stroke-miterlimit="10" d="  M234.313,764.188c0.019,0.563-0.296,1.235-0.464,1.76c-0.321,1.002-0.667,1.996-1.017,2.988c-0.795,2.255-1.623,4.498-2.439,6.745  c-0.239,0.658-0.487,1.315-0.705,1.982c-0.213,0.652-0.91,0.732-1.539,0.8c-1.146,0.123-4.85,0.051-4.633-1.79  c0.088-0.745,0.492-1.465,0.736-2.167c0.339-0.973,0.449-1.946,0.634-2.951c0.412-2.233,1.476-4.379,2.48-6.396  c0.157-0.316,2.203-4.482,2.416-4.395C231.066,761.294,234.247,762.493,234.313,764.188  C234.314,764.217,234.281,763.375,234.313,764.188z"></path>
<path fill="none" stroke="#000000" stroke-width="4" stroke-linecap="round" stroke-linejoin="round" stroke-miterlimit="10" d="  M242.625,761.25c-2.333,3.207-3.985,6.641-4.682,10.544c-0.144,0.807-1.201,3.696-0.351,4.336c0.548,0.411,1.763,0.189,2.403,0.193  c1.127,0.007,2.257,0.016,3.383-0.052c0.281-0.018,1.439,0.03,1.5-0.38c0.09-0.604,0.3-1.206,0.463-1.794  c0.651-2.343,1.339-4.677,2.027-7.011c0.267-0.907,0.535-1.814,0.804-2.721c0.118-0.396,0.343-0.609-0.042-0.8  c-0.964-0.475-1.936-0.937-2.918-1.373C244.436,761.849,243.493,761.305,242.625,761.25  C242.625,761.25,243.125,761.281,242.625,761.25z"></path>
<path fill="none" stroke="#000000" stroke-width="4" stroke-linecap="round" stroke-linejoin="round" stroke-miterlimit="10" d="  M221.929,768.945c0.827-0.137,1.671-0.179,2.508-0.122"></path>
<path fill="none" stroke="#000000" stroke-width="4" stroke-linecap="round" stroke-linejoin="round" stroke-miterlimit="10" d="  M234.002,768.114c1.434,0.295,2.913,0.375,4.37,0.234"></path>
<path fill="none" stroke="#000000" stroke-width="4" stroke-linecap="round" stroke-linejoin="round" stroke-miterlimit="10" d="  M247.752,768.704c1.527-0.434,3.041-0.518,4.623-0.509"></path>
<path fill="none" stroke="#000000" stroke-width="5" stroke-linecap="round" stroke-linejoin="round" stroke-miterlimit="10" d="  M288.667,686.5c-5.507-0.384-11.496,2.185-11.833,8.333c-0.353,6.413-0.284,12.931,0.25,19.333"></path>
<path fill="none" stroke="#000000" stroke-width="5" stroke-linecap="round" stroke-linejoin="round" stroke-miterlimit="10" d="  M275,704.333c-4.417,7.203-8.969,14.346-14.045,21.104c-6.057,8.066-10.451,17.33-9.705,27.646"></path>
<path fill="none" stroke="#000000" stroke-width="5" stroke-linecap="round" stroke-linejoin="round" stroke-miterlimit="10" d="  M274.667,710.917c-1.29,3.271-1.903,6.986-1.688,10.494c0.115,1.887,0.651,3.674,0.999,5.521c0.38,2.018,0.658,4.056,0.898,6.094  c0.572,4.859,0.931,9.757,0.984,14.65c0.024,2.195-0.009,4.401-0.229,6.587c-0.141,1.401-0.296,2.97-0.963,4.237  c6.827-6.865,15.571-13.864,25.888-12.604c2.969,0.362,5.829,1.322,8.572,2.485c2.209,0.937,4.057,2.168,5.554,4.07  c3.143,3.997,4.353,9.352,4.673,14.327c0.34,5.282-0.102,11.545-3.02,16.138"></path>
<path fill="none" stroke="#000000" stroke-width="5" stroke-linecap="round" stroke-linejoin="round" stroke-miterlimit="10" d="  M288.5,768.583c2.086-2.213,6.062-5.249,9.243-3.532c2.807,1.516,2.674,6.03,2.257,8.699"></path>
<path fill="none" stroke="#000000" stroke-width="5" stroke-linecap="round" stroke-linejoin="round" stroke-miterlimit="10" d="  M292.75,774.333c4.148-2.16,8.88,1.218,12.374,3.154c5.432,3.013,10.904,5.968,16.505,8.655c10.199,4.895,21.255,7.879,32.524,8.904  c6.187,0.563,12.421,0.404,18.591-0.294c4.937-0.559,9.934-1.541,14.417-3.763c2.27-1.124,4.37-2.57,6.215-4.308  c2.027-1.906,3.663-4.17,5.381-6.347c2.498-3.165,4.781-6.255,5.25-10.369c0.393-3.448-0.014-6.936-0.19-10.384  c-0.077-1.506-0.436-3.466-0.014-4.957c0.107-0.379,0.348,0.438,0.485,0.568c0.597,0.565,1.12,1.213,1.596,1.88  c1.32,1.853,2.262,3.967,2.817,6.169c1.371,5.438,0.156,11.098-1.324,16.384c-1.526,5.448-3.697,10.943-7.157,15.472  c-1.46,1.911-3.198,3.667-5.287,4.889c-1.901,1.113-4.121,1.653-6.172,2.43c-11.102,4.203-22.484,8.75-34.605,7.694  c-6.064-0.527-12.153-2.241-17.998-3.883c-5.462-1.534-10.842-3.333-16.188-5.229c-4.146-1.471-8.334-2.84-12.384-4.563  c-3.478-1.479-6.907-3.095-10.252-4.853"></path>
<path fill="none" stroke="#000000" stroke-width="5" stroke-linecap="round" stroke-linejoin="round" stroke-miterlimit="10" d="  M314.75,695.625c2.355,1.757,4.733,4.202,5.667,7.045c0.541,1.646,0.358,3.499,0.144,5.191c-0.139,1.093-0.326,2.266-0.812,3.264"></path>
<path fill="none" stroke="#000000" stroke-width="5" stroke-linecap="round" stroke-linejoin="round" stroke-miterlimit="10" d="  M322.375,708.375c3.147,2.363,6.589,4.38,10.023,6.293c4.933,2.748,9.962,5.079,15.294,6.939c6.107,2.13,12.325,3.933,18.517,5.797  c5.384,1.621,10.843,3.18,16.041,5.346c11.273,4.697,17.811,15.495,20.875,26.875"></path>
<path fill="none" stroke="#000000" stroke-width="4" stroke-linecap="round" stroke-linejoin="round" stroke-miterlimit="10" d="  M318.125,713.938c-2.563,1.438-5.125,2.875-7.687,4.313c1.021,0.875,2.042,1.75,3.062,2.625"></path>
<path fill="none" stroke="#000000" stroke-width="4" stroke-linecap="round" stroke-linejoin="round" stroke-miterlimit="10" d="  M321.813,719.125c-2.219,1.113-4.391,2.342-6.482,3.681c-1.377,0.883-2.739,1.818-3.96,2.911c-0.797,0.713-1.953,1.744-1.996,2.908  c1.464,0.816,2.942,1.613,4.456,2.334c0.862,0.41,1.832,0.96,2.781,1.102c0.198,0.03,0.998-0.964,1.137-1.1  c0.771-0.757,1.542-1.513,2.313-2.269c2.063-2.022,4.125-4.045,6.188-6.067c-1.646-0.938-3.292-1.875-4.938-2.813"></path>
<path fill="none" stroke="#000000" stroke-width="4" stroke-linecap="round" stroke-linejoin="round" stroke-miterlimit="10" d="  M333.75,726.188c-2.815,2.079-5.595,4.24-8.196,6.583c-0.978,0.881-2.854,2.229-3.136,3.621c-0.109,0.536,0.714,1.046,1.072,1.308  c0.905,0.663,1.909,1.195,2.917,1.685c0.868,0.422,1.757,0.827,2.674,1.134c0.448,0.148,0.475,0.163,0.759-0.147  c1.134-1.236,2.349-2.404,3.549-3.576c1.705-1.666,3.432-3.313,5.211-4.898c1.042-0.929,2.388-2.479,3.775-2.896  c-1.74-0.699-3.492-1.372-5.267-1.979c-0.901-0.308-2.239-0.958-3.108-0.958"></path>
<path fill="none" stroke="#000000" stroke-width="4" stroke-linecap="round" stroke-linejoin="round" stroke-miterlimit="10" d="  M353.063,730.438c-3.458,1.665-6.867,3.476-10.127,5.5c-1.829,1.136-3.836,2.347-5.249,4.004c-0.457,0.536-0.926,1.172-0.461,1.812  c0.722,0.992,1.508,1.942,2.374,2.813c0.655,0.66,1.368,1.339,2.191,1.784c0.501,0.271,0.635,0.16,1.022-0.156  c1.601-1.308,3.211-2.603,4.831-3.887c2.05-1.625,4.11-3.239,6.218-4.788c0.825-0.606,1.655-1.209,2.519-1.759  c0.299-0.19,0.914-0.701,1.307-0.635c-1.854-1.325-3.716-3.032-4.813-5.063"></path>
<path fill="none" stroke="#000000" stroke-width="4" stroke-linecap="round" stroke-linejoin="round" stroke-miterlimit="10" d="  M323.438,727.627c1.382-0.059,2.771,0.883,3.904,1.575"></path>
<path fill="none" stroke="#000000" stroke-width="4" stroke-linecap="round" stroke-linejoin="round" stroke-miterlimit="10" d="  M338.939,733.006c0.851-0.186,2.141,0.559,2.931,0.822"></path>
<path fill="none" stroke="#000000" stroke-width="4" stroke-linecap="round" stroke-linejoin="round" stroke-miterlimit="10" d="  M354.512,738.58c0.861,0.234,1.693,0.576,2.471,1.012"></path>
<path fill="none" stroke="#000000" stroke-width="5" stroke-linecap="round" stroke-linejoin="round" stroke-miterlimit="10" d="  M336.75,789.917c0.198-4.162,0.849-8.352,1.861-12.39c0.651-2.598,1.485-5.17,2.67-7.575c1.238-2.512,3.041-4.663,4.647-6.94  c2.548-3.611,5.192-7.596,9.905-8.292c2.729-0.402,5.452,0.227,8.15,0.574c2.206,0.285,4.45,0.54,6.678,0.425  c1.914-0.098,3.771-0.56,5.349-1.685c1.657-1.182,3.001-2.853,4.26-4.433c1.587-1.993,3.064-4.104,4.266-6.354  c0.879-1.646,2.176-4.063,1.546-5.998"></path>
<path fill="none" stroke="#000000" stroke-width="5" stroke-linecap="round" stroke-linejoin="round" stroke-miterlimit="10" d="  M558.667,68.333c-1.824,8.99-2.545,18.398-2.173,27.558c0.233,5.754,1.396,11.356,2.004,17.068  c0.617,5.793,0.853,11.622,0.951,17.444c0.189,11.165-0.07,22.334-0.156,33.499c-0.082,10.59-0.1,21.175-0.324,31.764  c-0.067,3.175-0.207,6.389,0.061,9.558c0.172,2.044,0.642,3.991,1.641,5.795c0.801,1.444,1.789,2.795,2.683,4.183  c6.082,9.449,12.375,18.864,20.118,27.054c3.82,4.04,8.063,7.938,13.03,10.522c4.818,2.508,10.682,3.5,16.079,3.167  c11.081-0.684,19.699-8.173,26.503-16.326c2.019-2.419,3.938-4.912,6.017-7.281c1.839-2.096,3.739-4.137,5.6-6.214  c3.027-3.38,5.915-6.906,8.058-10.926c4.76-8.928,5.209-18.955,5.756-28.84c0.685-12.39,1.719-24.767,3.168-37.092  c0.649-5.521,1.379-11.034,2.283-16.52c0.715-4.344,1.625-8.653,2.343-12.997c1.404-8.498,2.53-17.054,3.269-25.636  c0.365-4.24,0.638-8.495,0.656-12.752c0.014-3.106-0.024-6.32-0.731-9.361"></path>
<path fill="none" stroke="#000000" stroke-width="5" stroke-linecap="round" stroke-linejoin="round" stroke-miterlimit="10" d="  M560.917,68.5c8.229-4.478,16.628-8.721,25.21-12.482c5.031-2.206,10.161-4.205,15.542-5.378c3.397-0.741,7.101-1.378,10.581-0.973  c-1.373,3.785-3.334,7.455-5.688,10.715c-2.781,3.852-6.632,7.65-11.562,8.286c2.412,2.937,7.212,2.908,10.64,2.653  c4.368-0.325,8.86-1.314,12.94-2.924c3.997-1.577,7.659-4.104,11.152-6.566c2.708-1.909,5.365-3.902,7.934-5.996"></path>
<path fill="none" stroke="#000000" stroke-width="5" stroke-linecap="round" stroke-linejoin="round" stroke-miterlimit="10" d="  M638.083,57.917c2.297-0.574,4.827-0.43,7.171-0.283c4.01,0.252,7.99,0.927,11.912,1.783c3.502,0.764,7.07,1.953,9.963,4.134  c1.88,1.417,3.858,3.574,4.037,6.033"></path>
<path fill="none" stroke="#000000" stroke-width="5" stroke-linecap="round" stroke-linejoin="round" stroke-miterlimit="10" d="  M558.333,136.333c-4.2-8.797-8.059-17.97-10.656-27.377c-1.426-5.167-2.209-10.506-2.824-15.822  c-0.736-6.373-1.172-12.792-1.231-19.207c-0.049-5.374,0.041-10.906,1.194-16.177c1.038-4.74,3.722-9.001,6.443-12.948  c3.435-4.981,7.318-9.681,11.486-14.065c1.76-1.851,3.578-3.665,5.539-5.305c0.965-0.808,2.246-2.046,3.553-2.251  c2.955-0.465,2.6,3.805,2.163,5.486c2.021-2.863,5.043-5.112,7.985-6.95c4.405-2.752,9.313-4.65,14.348-5.883  c5.948-1.457,12.071-2.264,18.189-2.495c2.746-0.104,5.506-0.096,8.246,0.129c1.819,0.15,4.035,0.249,5.677,1.15  c0.308,0.168,0.728,0.478,0.555,0.882c-0.598,1.395-1.207,2.785-1.833,4.167c8.781-0.787,17.685-0.916,26.488-0.51  c4.242,0.195,9.045,0.334,12.593,3.003c2.432,1.831,3.708,5.001,2.919,8.007c4.127,0.313,8.307,1.299,12.149,2.823  c2.297,0.911,4.521,2.069,6.466,3.604c2.008,1.584,3.375,3.5,4.623,5.706c2.654,4.687,4.979,9.517,5.851,14.882  c0.655,4.031,0.538,8.147-0.07,12.176c-0.843,5.582-2.592,10.969-4.64,16.214c-2.085,5.344-4.239,10.662-6.476,15.945  c-3.656,8.636-7.879,17.056-11.322,25.778c-1.638,4.147-3.664,8.45-6.581,11.873"></path>
<path fill="none" stroke="#000000" stroke-width="5" stroke-linecap="round" stroke-linejoin="round" stroke-miterlimit="10" d="  M547.167,116c-2.211,4.914-4.036,10.009-4.297,15.441c-0.263,5.472,1.118,10.7,3.153,15.734c3.481,8.609,8.019,16.88,12.811,24.825"></path>
<path fill="none" stroke="#000000" stroke-width="5" stroke-linecap="round" stroke-linejoin="round" stroke-miterlimit="10" d="  M553.241,142.729c1.293,1.919,2.535,3.873,3.719,5.862"></path>
<path fill="none" stroke="#000000" stroke-width="5" stroke-linecap="round" stroke-linejoin="round" stroke-miterlimit="10" d="  M679.667,123.167c2.467,4.066,3.378,8.677,3.972,13.333c0.327,2.563,0.722,5.188,0.764,7.773c0.039,2.473-0.376,4.947-0.97,7.34  c-1.367,5.512-3.739,10.862-6.854,15.607c-2.49,3.792-5.964,8.232-10.578,9.447"></path>
<path fill="none" stroke="#000000" stroke-width="5" stroke-linecap="round" stroke-linejoin="round" stroke-miterlimit="10" d="  M667.287,158.794c0.979-0.925,1.934-1.875,2.866-2.847c0.423-0.442,0.842-0.889,1.256-1.34c0.188-0.642,0.524-1.241,0.971-1.738"></path>
<path fill="none" stroke="#000000" stroke-width="5" stroke-linecap="round" stroke-linejoin="round" stroke-miterlimit="10" d="  M591.025,83.84c2.338-0.89,4.127-3.762,6.891-3.363"></path>
<path fill="none" stroke="#000000" stroke-width="5" stroke-linecap="round" stroke-linejoin="round" stroke-miterlimit="10" d="  M627.838,81.364c1.887-0.326,4.673,1.507,5.44,3.196"></path>
<path fill="none" stroke="#000000" stroke-width="5" stroke-linecap="round" stroke-linejoin="round" stroke-miterlimit="10" d="  M598.27,121.789c0.166-0.112,0.2-0.449,0.302-0.607c0.156-0.243,0.375-0.437,0.53-0.681c0.407-0.637,0.308-1.463,0.276-2.179  c-0.026-0.627,0.002-1.288-0.127-1.905c-0.132-0.621-0.54-0.836-0.941-1.259c0.096,1.274-0.763,2.439-0.799,3.728  C597.503,119.171,597.489,122.321,598.27,121.789C598.325,121.751,598.159,121.864,598.27,121.789z"></path>
<path fill="none" stroke="#000000" stroke-width="5" stroke-linecap="round" stroke-linejoin="round" stroke-miterlimit="10" d="  M628.433,122.131c0.035-0.878-0.271-1.582-0.598-2.383c-0.176-0.43-0.323-0.899-0.562-1.299c-0.206-0.347-0.571-0.56-0.77-0.91  c-0.239,1.6-0.51,6.505,1.847,6.795C628.378,123.599,628.405,122.865,628.433,122.131  C628.438,121.985,628.419,122.498,628.433,122.131z"></path>
<path fill="none" stroke="#000000" stroke-width="5" stroke-linecap="round" stroke-linejoin="round" stroke-miterlimit="10" d="  M597.917,135.75c-0.385,0.077-0.822,0.651-1.082,0.905c-0.822,0.805-1.6,1.655-2.359,2.517c-1.973,2.234-3.836,4.578-5.508,7.047  c-1.438,2.125-2.897,4.435-3.56,6.941c-0.273,1.037-0.23,2.093-0.35,3.152c-0.169,1.506-0.454,2.997-0.612,4.504  c-0.444,4.244,0.552,8.018,3.933,10.768c1.965,1.599,4.313,2.688,6.683,3.54c2.867,1.029,5.812,1.878,8.794,2.502  c4.163,0.871,8.499,1.324,12.737,0.777c4.401-0.568,8.099-2.323,10.992-5.714c3.245-3.805,5.701-8.765,6.193-13.779  c0.39-3.966-0.497-8.597-2.111-12.243"></path>
<path fill="none" stroke="#000000" stroke-width="4" stroke-linecap="round" stroke-linejoin="round" stroke-miterlimit="10" d="  M577,189.833c3.286,2.152,6.753,4.06,10.267,5.81c5.164,2.572,10.598,4.853,16.27,6.012c11.712,2.393,23.979-2.241,33.771-8.465  c1.559-0.99,3.077-2.046,4.525-3.191"></path>
<path fill="none" stroke="#000000" stroke-width="4" stroke-linecap="round" stroke-linejoin="round" stroke-miterlimit="10" d="  M585,195.667c0.338,4.19,1.269,8.431,2.723,12.371c1.581,4.284,4.137,8.944,8.584,10.765c5.143,2.105,11.54,2.362,16.882,0.923  c2.447-0.659,4.834-1.725,6.813-3.327c2.164-1.752,3.964-4.122,5.561-6.382c2.115-2.992,4.438-6.72,4.438-10.517"></path>
<path fill="none" stroke="#000000" stroke-width="4" stroke-linecap="round" stroke-linejoin="round" stroke-miterlimit="10" d="  M601.086,229.122c0.741,0.074,1.309,0.627,1.924,0.986c0.649,0.378,1.404,0.577,2.156,0.565"></path>
<path fill="none" stroke="#000000" stroke-width="5" stroke-linecap="round" stroke-linejoin="round" stroke-miterlimit="10" d="  M499.75,232c7.29-3.198,14.731-6.085,22.228-8.76c10.568-3.771,21.572-7.495,32.778-8.734c1.905-0.211,3.827-0.333,5.744-0.256"></path>
<path fill="none" stroke="#000000" stroke-width="5" stroke-linecap="round" stroke-linejoin="round" stroke-miterlimit="10" d="  M657.875,221.625c3.439,0.924,6.604,3.186,9.232,5.524c3.846,3.421,6.73,7.621,9.195,12.108c5.349,9.738,10.76,19.444,16.356,29.042  c3.096,5.311,6.239,10.599,9.561,15.772c2.131,3.319,4.269,6.908,7.059,9.732c0.299,0.302,0.564,0.33,0.258,0.713  c-0.434,0.541-0.86,1.085-1.282,1.635c-0.938,1.223-1.85,2.466-2.739,3.725c-1.733,2.453-3.387,4.962-4.976,7.511  c-3.01,4.825-5.859,9.784-8.304,14.921c-0.496,1.042-0.979,2.095-1.391,3.173c-0.193,0.505-0.545,1.208-0.47,1.769  c-8.221-4.361-16.44-8.74-24.417-13.537c-4.286-2.578-8.535-5.26-12.514-8.297c-2.609-1.992-5.671-4.291-7.194-7.291"></path>
<path fill="none" stroke="#000000" stroke-width="5" stroke-linecap="round" stroke-linejoin="round" stroke-miterlimit="10" d="  M652,272c0.396,2.936-0.155,6.092-0.796,8.943c-0.859,3.817-2.209,7.518-3.841,11.069c-4.63,10.072-11.477,19.159-19.103,27.147  c-14.579,15.27-33.369,26.124-45.581,43.667c-1.567,2.252-3.026,4.579-4.376,6.968c-0.686,1.215-1.344,2.445-1.975,3.69  c-0.634,1.25-1.127,2.656-1.944,3.795c-2.338,3.259-5.702,5.676-9.21,7.539c-9.328,4.954-20.321,6.745-30.764,7.203  c-9.53,0.418-19.168-0.396-28.455-2.601c-8.772-2.083-17.464-5.454-24.706-10.92"></path>
<path fill="none" stroke="#000000" stroke-width="4" stroke-linecap="round" stroke-linejoin="round" stroke-miterlimit="10" d="  M523.334,277.186c5.482-0.957,10.751-2.846,15.846-5.046c2.622-1.132,5.205-2.349,7.781-3.578c2.094-0.999,4.595-1.973,5.792-4.104"></path>
<path fill="none" stroke="#000000" stroke-width="4" stroke-linecap="round" stroke-linejoin="round" stroke-miterlimit="10" d="  M611.917,286.667c-1.773,4.13-3.547,8.26-5.321,12.389c-0.238,0.555,3.556,1.688,4.068,1.798c2.619,0.564,5.315,0.437,7.958,0.13  c2.597-0.3,5.174-0.791,7.698-1.468c0.996-0.268,1.987-0.561,2.959-0.906c0.323-0.114,0.317-0.139,0.462-0.445  c2.309-4.916,4.617-9.833,6.926-14.749c-3.718,1.178-7.511,2.169-11.328,2.961c-2.602,0.54-5.243,1-7.901,1.134  C615.69,287.601,613.44,287.7,611.917,286.667C611.917,286.667,614.25,288.25,611.917,286.667z"></path>
<path fill="none" stroke="#000000" stroke-width="4" stroke-linecap="round" stroke-linejoin="round" stroke-miterlimit="10" d="  M699.5,283.25c-5.359,1.912-10.017,6.189-13.627,10.474c-5.254,6.234-8.825,13.742-11.123,21.526"></path>
<path fill="none" stroke="#000000" stroke-width="5" stroke-linecap="round" stroke-linejoin="round" stroke-miterlimit="10" d="  M708.167,295.333c2.014,3.108,4.191,6.12,6.442,9.06c3.532,4.613,7.308,9.142,11.678,12.989c3.331,2.933,7.263,5.01,10.982,7.397  c4.861,3.12,9.662,6.334,14.45,9.565c9.599,6.479,19.144,13.042,28.61,19.714c4.138,2.916,8.248,5.87,12.388,8.782  c2.329,1.639,4.66,3.274,7.009,4.885c0.741,0.508,1.483,1.017,2.237,1.508c0.41,0.268,0.702,0.572,1.188,0.33  c0.9-0.447,1.691-1.175,2.464-1.806c1.246-1.019,2.475-2.06,3.739-3.056c1.075-0.847,2.174-1.675,3.345-2.387  c0.869-0.527,1.916-1.148,2.967-1.148c1.826,0,3.557-2.503,4.524-3.757c1.824-2.363,3.377-4.952,4.736-7.608  c1.08-2.112,2.184-4.373,2.636-6.72c0.476-2.468,0.658-4.954,1.261-7.413c0.656-2.682,1.4-5.553,2.828-7.944  c0.923-1.546,2.526-2.036,4.193-2.481c4.624-1.234,9.826-1.055,14.116,1.204c4.711,2.48,7.861,7.548,10.068,12.24  c2.183,4.637,2.451,9.363,0.651,14.196c-2.063,5.543-5.864,9.577-10.135,13.529c-1.358,1.258-2.751,2.496-3.99,3.874  c-0.802,0.891-1.735,1.977-1.89,3.215"></path>
<path fill="none" stroke="#000000" stroke-width="5" stroke-linecap="round" stroke-linejoin="round" stroke-miterlimit="10" d="  M842.333,378c4.104,6.956,10.112,13.071,16.327,18.161c4.563,3.736,9.516,6.667,14.602,9.612c5.21,3.017,10.199,6.462,14.752,10.408  c4.227,3.663,8.294,7.846,10.971,12.803c2.404,4.45,3.437,9.866,0.183,14.183"></path>
<path fill="none" stroke="#000000" stroke-width="5" stroke-linecap="round" stroke-linejoin="round" stroke-miterlimit="10" d="  M855.5,409.333c2.442,3.026,5.089,5.902,7.828,8.66c3.99,4.018,8.301,7.957,13.246,10.771c2.374,1.351,4.985,2.173,7.407,3.428  c2.317,1.2,4.522,2.639,6.486,4.361c4.046,3.548,7.059,8.449,6.438,13.997c-0.579,5.169-4.416,10.803-10.238,10.117"></path>
<path fill="none" stroke="#000000" stroke-width="5" stroke-linecap="round" stroke-linejoin="round" stroke-miterlimit="10" d="  M843.333,417c2.155,3.398,4.602,6.64,7.19,9.717c3.575,4.249,7.639,8.542,12.598,11.172c5.019,2.662,9.979,5.294,14.411,8.895  c3.892,3.161,8.478,7.67,8.393,13.093c-0.051,3.186-1.612,6.365-4.242,8.189c-2.732,1.896-6.908,2.681-10.017,1.268"></path>
<path fill="none" stroke="#000000" stroke-width="5" stroke-linecap="round" stroke-linejoin="round" stroke-miterlimit="10" d="  M831.5,421.833c1.988,2.652,3.901,5.631,5.917,8.349c3.525,4.754,7.19,9.435,11.214,13.781c1.723,1.861,3.518,3.679,5.49,5.278  c2.288,1.854,4.79,3.447,7.135,5.231c3.834,2.917,9.956,7.365,9.34,12.889c-0.275,2.468-2.063,4.794-3.796,6.483  c-1.573,1.534-3.546,2.489-5.771,2.444c-3.323-0.067-6.484-1.877-9.18-3.657c-8.426-5.57-15.279-13.155-21.497-21.024  c-7.606-9.627-14.557-19.78-21.252-30.055c-5.847-8.973-11.575-18.066-16.764-27.439c-0.708-1.279-1.407-2.565-2.054-3.877  c-0.221-0.448-0.827-0.651-1.252-0.898c-0.578-0.336-1.157-0.672-1.736-1.007c-1.291-0.748-2.584-1.493-3.877-2.237  c-5.329-3.066-10.67-6.109-16.002-9.169c-11.163-6.408-22.311-12.862-33.187-19.75c-14.338-9.08-27.563-19.702-41.396-29.507"></path>
<path fill="none" stroke="#000000" stroke-width="4" stroke-linecap="round" stroke-linejoin="round" stroke-miterlimit="10" d="  M808.037,382.91c1.562,0.645,2.956,1.626,4.239,2.715c1.281,1.088,2.732,2.27,3.736,3.629c2.235,3.028,4.204,6.423,5.848,9.813"></path>
<path fill="none" stroke="#000000" stroke-width="5" stroke-linecap="round" stroke-linejoin="round" stroke-miterlimit="10" d="  M574.333,380.333c10.57,10.691,20.719,21.828,30.613,33.143c15.415,17.626,30.508,35.9,42.894,55.821  c4.467,7.186,8.689,14.692,11.493,22.703c-8.236-0.95-17.191,1.208-24.406,5.163c-7.355,4.031-13.044,10.426-16.261,18.17  c-9.39-6.352-18.115-13.803-26.32-21.605c-8.86-8.426-17.134-17.558-23.877-27.786c-2.201-3.339-4.23-6.82-5.771-10.519  c-2.063-4.955-2.816-10.122-3.365-15.423"></path>
<path fill="none" stroke="#000000" stroke-width="5" stroke-linecap="round" stroke-linejoin="round" stroke-miterlimit="10" d="  M531.5,441.167c4.688-0.074,9.382-0.337,14.05-0.767c3.083-0.284,6.166-0.645,9.21-1.22c2.38-0.45,4.948-0.958,7.073-2.18"></path>
<path fill="none" stroke="#000000" stroke-width="5" stroke-linecap="round" stroke-linejoin="round" stroke-miterlimit="10" d="  M526,428c1.131,7.972,2.029,15.984,2.776,24.001c1.028,11.041,1.985,22.291,1.238,33.38c-0.461,6.828-1.958,13.643-3.268,20.349  c-0.932,4.774-1.909,9.548-3.08,14.271c-2.612-2.008-5.351-3.867-8.146-5.609c-4.066-2.533-8.464-5.089-13.173-6.19  c-4.478-1.047-9.428,0.188-13.677,1.652c-2.295,0.791-4.556,1.754-6.645,2.997c-1.189,0.708-3.193,1.817-3.526,3.316  c-0.006,0.027-0.1,0.321-0.091,0.332c-0.084-0.107,0.022-0.574,0.03-0.696c0.046-0.716,0.084-1.432,0.111-2.147  c0.093-2.494,0.066-4.993-0.048-7.485c-0.196-4.267-0.651-8.52-1.313-12.738c-1.807-11.521-5.506-22.545-8.857-33.679  c-3.299-10.959-6.545-21.938-9.56-32.979c-1.372-5.023-2.727-10.062-3.829-15.153c-0.329-1.521-0.648-3.051-0.838-4.597  c-0.066-0.538-0.339-1.711,0.061-2.191"></path>
<path fill="none" stroke="#000000" stroke-width="4" stroke-linecap="round" stroke-linejoin="round" stroke-miterlimit="10" d="  M466,396.667c1.636,7.665,3.392,15.306,5.216,22.928c2.669,11.152,5.426,22.324,8.93,33.249c1.307,4.076,2.95,8.02,4.324,12.07  c1.731,5.104,3.121,10.322,4.288,15.582c1.136,5.117,2.065,10.284,2.75,15.481c0.484,3.671,1.016,7.477,0.825,11.19"></path>
<path fill="none" stroke="#000000" stroke-width="5" stroke-linecap="round" stroke-linejoin="round" stroke-miterlimit="10" d="  M478.333,517.833c-7.693,3.946-14.988,9.152-21.257,15.097c-4.009,3.802-7.685,8.086-10.277,12.992  c-2.893,5.474-5.918,10.819-9.333,15.99c-5.099,7.723-10.865,14.941-16.27,22.442c-4.732,6.567-9.607,13.016-14.696,19.312"></path>
<path fill="none" stroke="#000000" stroke-width="5" stroke-linecap="round" stroke-linejoin="round" stroke-miterlimit="10" d="  M426.5,613.833c5.692-5.818,11.542-11.488,17.476-17.058c8.244-7.738,16.666-15.435,25.813-22.104  c4.817-3.513,9.698-6.918,14.42-10.563c4.842-3.739,9.597-7.594,14.254-11.561c4.275-3.642,8.496-7.365,12.499-11.307  c3.411-3.36,6.448-6.881,8.307-11.362c1.272-3.067,2.232-6.534,2.232-9.88"></path>
<path fill="none" stroke="#000000" stroke-width="4" stroke-linecap="round" stroke-linejoin="round" stroke-miterlimit="10" d="  M485.813,522.168c0.092,1.578,0.556,3.134,1.345,4.504"></path>
<path fill="none" stroke="#000000" stroke-width="4" stroke-linecap="round" stroke-linejoin="round" stroke-miterlimit="10" d="  M504.665,533.512c1.589,0.184,3.246-0.347,4.432-1.421"></path>
<path fill="none" stroke="#000000" stroke-width="5" stroke-linecap="round" stroke-linejoin="round" stroke-miterlimit="10" d="  M383.833,628.333c6.076-6.984,12.151-13.969,18.227-20.953c0.98-1.127,1.96-2.253,2.94-3.38c0.071,4.479,2.507,9.031,6.696,10.872  c4.542,1.995,10.245,2.005,14.971,0.628c-6.958,5.859-13.917,11.719-20.875,17.578c-1.486,1.252-2.972,2.503-4.458,3.755"></path>
<path fill="none" stroke="#000000" stroke-width="5" stroke-linecap="round" stroke-linejoin="round" stroke-miterlimit="10" d="  M393.667,630.583c-3.169-1.447-9.016-0.894-11.124,2.215c-0.91,1.341-0.774,3.632,0.032,4.998c0.833,1.412,2.521,2.055,4.01,2.511  c2.323,0.711,4.744,1.125,7.178,0.946c1.875-0.138,4.123-0.576,5.485-1.99c1.439-1.494,0.383-3.335-0.72-4.684  c-1.218-1.491-2.808-3.01-4.528-3.913"></path>
<path fill="none" stroke="#000000" stroke-width="5" stroke-linecap="round" stroke-linejoin="round" stroke-miterlimit="10" d="  M380.583,633.833c0.408-2.969,1.129-6.147,2.644-8.761c1.51-2.605,4.648-3.436,6.606-5.656c-3.421,2.052-6.602,4.619-9.455,7.395  c-3.838,3.735-7.311,8.213-8.821,13.426c-1.513,5.221-4.189,10.142-7.182,14.675c-2.715,4.113-5.856,7.913-8.515,12.066  c-5.338,8.342-10.583,17.117-13.528,26.631c-1.445,4.666-1.69,9.431-2.041,14.271c-0.214,2.952-0.455,5.911-0.541,8.87"></path>
<path fill="none" stroke="#000000" stroke-width="5" stroke-linecap="round" stroke-linejoin="round" stroke-miterlimit="10" d="  M411.75,628c-1.964,3.685-3.037,8.092-2.968,12.262c0.047,2.815,0.757,5.38,1.923,7.924c0.748,1.631,1.349,3.329,1.919,5.028  c3.723,11.102,6.218,22.732,8.013,34.289c1.615,10.397,3.211,21.778-0.455,31.924c-3.654,10.113-11.946,18.089-21.833,22.12  c-0.855,0.349-1.722,0.667-2.6,0.953"></path>
<path fill="none" stroke="#000000" stroke-width="4" stroke-linecap="round" stroke-linejoin="round" stroke-miterlimit="10" d="  M349.375,678.875c-2.101,7.619-3.679,15.813-3.405,23.741c0.072,2.07,0.292,4.175,0.925,6.157c0.745,2.338,1.933,4.604,3.091,6.761  c1.618,3.01,3.461,6.049,5.764,8.591"></path>
<path fill="none" stroke="#000000" stroke-width="4" stroke-linecap="round" stroke-linejoin="round" stroke-miterlimit="10" d="  M380.875,731.25c1.571,0,3.221-0.428,4.758-0.702c2.688-0.479,5.365-1.022,8.03-1.614c2.891-0.643,5.769-1.344,8.625-2.13  c2.381-0.655,4.367-1.671,6.185-3.368c3.885-3.627,6.424-8.644,8.473-13.473c1.947-4.589,3.508-9.368,4.68-14.213"></path>
<path fill="none" stroke="#000000" stroke-width="4" stroke-linecap="round" stroke-linejoin="round" stroke-miterlimit="10" d="  M348,702.375c3.524-3.188,8.319-5.925,13.139-6.232c4.86-0.31,7.444,3.832,11.146,6.181c3.796,2.408,9.522,3.894,13.843,2.134  c3.556-1.448,5.557-5.098,8.521-7.364c6.815-5.21,18.216-4.559,25.226,0.032"></path>
<path fill="none" stroke="#000000" stroke-width="3" stroke-linecap="round" stroke-linejoin="round" stroke-miterlimit="10" d="  M367.833,651.583c-0.144,6.894-0.458,14.318-2.989,20.801c-0.6,1.536-1.219,3.066-1.885,4.576c-0.235,0.533-0.73,2.461-1.389,2.313  c-1.741-0.393-3.503-0.713-5.274-0.929c-1.671-0.203-3.864-0.566-5.462,0.156"></path>
<path fill="none" stroke="#000000" stroke-width="3" stroke-linecap="round" stroke-linejoin="round" stroke-miterlimit="10" d="  M354.839,671.734c1.5-0.159,3.005-0.263,4.512-0.309c1.21-0.037,3.152-0.387,4.256,0.208"></path>
<path fill="none" stroke="#000000" stroke-width="3" stroke-linecap="round" stroke-linejoin="round" stroke-miterlimit="10" d="  M358.216,664.616c1.041-0.491,2.306-0.416,3.427-0.469c1.369-0.064,2.737-0.128,4.105-0.192"></path>
<path fill="none" stroke="#000000" stroke-width="3" stroke-linecap="round" stroke-linejoin="round" stroke-miterlimit="10" d="  M410.667,651.5c-0.859,2.401-1.598,4.852-2.24,7.319c-0.929,3.566-1.364,7.033-1.593,10.699c-0.096,1.543-0.276,3.078-0.423,4.617  c-0.103,1.08-0.45,2.914,0.588,3.675c1.188,0.87,3.223,0.944,4.621,1.164c1.563,0.246,3.398,0.267,4.88,0.859"></path>
<path fill="none" stroke="#000000" stroke-width="3" stroke-linecap="round" stroke-linejoin="round" stroke-miterlimit="10" d="  M407.75,672.923c3.081-0.225,6.184-0.133,9.246,0.271"></path>
<path fill="none" stroke="#000000" stroke-width="3" stroke-linecap="round" stroke-linejoin="round" stroke-miterlimit="10" d="  M407.333,664.667c2.861,0,5.722,0,8.583,0"></path>
<path fill="none" stroke="#000000" stroke-width="3" stroke-linecap="round" stroke-linejoin="round" stroke-miterlimit="10" d="  M379.917,646.417c-0.503,1.225-1.35,3.495-0.381,4.692c0.44,0.545,1.339,0.619,1.981,0.722c1.05,0.168,2.11,0.267,3.169,0.359  c2.37,0.207,4.746,0.341,7.111,0.592c1.604,0.17,3.998,0.952,5.414-0.188c1.467-1.183-0.201-2.908-1.177-3.786  c-1.315-1.184-2.963-1.952-4.677-2.355c-2.116-0.497-4.4-0.564-6.567-0.542c-1.395,0.014-2.853,0.063-4.207,0.424"></path>
<path fill="none" stroke="#000000" stroke-width="3" stroke-linecap="round" stroke-linejoin="round" stroke-miterlimit="10" d="  M396.09,660.887c-0.327-0.553-2.14-0.598-2.72-0.691c-1-0.163-2.006-0.286-3.015-0.369c-2.019-0.167-4.05-0.176-6.07-0.026  c-1.01,0.075-2.018,0.189-3.019,0.344c-0.5,0.077-1,0.164-1.497,0.261c-0.736,0.143-0.745,0.121-0.78,0.867  c-0.088,1.906-0.125,3.814-0.113,5.723c3.835-0.064,7.672-0.05,11.507,0.044c0.895,0.021,1.79,0.048,2.684,0.078  c0.511,0.017,1.022,0.036,1.533,0.056c0.617,0.024,0.513-0.537,0.63-1.071c0.187-0.846,0.359-1.695,0.518-2.547  C395.859,662.956,396.415,661.436,396.09,660.887C396.042,660.806,396.131,660.956,396.09,660.887z"></path>
<path fill="none" stroke="#000000" stroke-width="3" stroke-linecap="round" stroke-linejoin="round" stroke-miterlimit="10" d="  M393.124,682.351c-0.029-0.819-0.039-1.639-0.029-2.458c0.005-0.469,0.018-0.937,0.037-1.404c0.02-0.505,0.238-0.974-0.264-1.21  c-1.731-0.813-3.664-1.029-5.544-1.225c-2.051-0.212-4.109-0.368-6.169-0.466c-1.03-0.05-2.061-0.084-3.092-0.104  c-0.516-0.01-1.031-0.017-1.547-0.02c-0.597-0.004-0.574,0.48-0.723,1.004c-0.226,0.794-0.367,1.612-0.422,2.436  c-0.032,0.472-0.035,0.944-0.01,1.415c0.035,0.649,0.049,0.743,0.675,0.954c1.725,0.581,3.641,0.418,5.432,0.405  c1.94-0.014,3.881-0.025,5.821-0.038C389.245,681.626,391.275,681.618,393.124,682.351  C393.095,681.531,392.207,681.987,393.124,682.351z"></path>
<path fill="none" stroke="#000000" stroke-width="3" stroke-linecap="round" stroke-linejoin="round" stroke-miterlimit="10" d="  M387.087,653.584c-0.091,0.783,0.086,1.57-0.014,2.353c-0.107,0.845-0.799,1.688-0.551,2.559"></path>
<path fill="none" stroke="#000000" stroke-width="3" stroke-linecap="round" stroke-linejoin="round" stroke-miterlimit="10" d="  M384.624,668.755c0.232,2.036,0.156,4.622-0.826,6.479"></path>
<path fill="none" stroke="#000000" stroke-width="3" stroke-linecap="round" stroke-linejoin="round" stroke-miterlimit="10" d="  M384.174,682c0.018,1.364-0.074,2.73-0.279,4.08"></path>
<path fill="none" stroke="#000000" stroke-width="5" stroke-linecap="round" stroke-linejoin="round" stroke-miterlimit="10" d="  M617.167,515.833c-1.857,3.004-3.411,6.225-4.787,9.473c-2.27,5.354-4.031,11.016-4.619,16.819  c-0.299,2.951-0.279,5.949,0.239,8.875c0.44,2.489,0.591,5.027,0.609,7.553c0.043,5.849-0.61,11.7-1.509,17.472  c-0.829,5.327-1.898,10.618-3.175,15.855c-0.781,3.207-1.51,6.553-2.759,9.62"></path>
<path fill="none" stroke="#000000" stroke-width="5" stroke-linecap="round" stroke-linejoin="round" stroke-miterlimit="10" d="  M660,492.333c1.364,2.445,2.6,5.03,3.099,7.806c0.424,2.362,0.242,4.758-0.319,7.08c-0.902,3.732-2.6,7.219-4.23,10.675  c-4.906,10.396-10.023,20.691-15.044,31.032c-4.935,10.164-9.952,20.315-14.453,30.683c-1.715,3.947-3.093,8.011-4.568,12.053  c-1.96,5.365-3.979,10.709-5.934,16.077c-0.303,0.832-0.605,1.665-0.891,2.503c-0.111,0.324-0.326,0.742-0.326,1.093"></path>
<path fill="none" stroke="#000000" stroke-width="5" stroke-linecap="round" stroke-linejoin="round" stroke-miterlimit="10" d="  M591.25,634c1.491-5.272,2.971-10.549,4.438-15.828c1.029-3.703,2.055-7.407,3.051-11.119c0.343-1.275,0.684-2.552,1.005-3.833  c0.135-0.535,0.382-1.161,0.382-1.72c0.633,3.926,3.709,7.382,7.302,8.934c3.17,1.37,7.018,1.79,10.448,1.816  c-0.75,3.5-1.5,7-2.25,10.5"></path>
<path fill="none" stroke="#000000" stroke-width="5" stroke-linecap="round" stroke-linejoin="round" stroke-miterlimit="10" d="  M592.625,635.625c1.648,1.438,3.683,2.494,5.719,3.263c2.763,1.043,6.278,1.868,9.208,1.146c5.123-1.264,8.01-7.38,9.198-12.033  c1.957,1.012,3.876,2.229,5.511,3.71c0.898,0.813,1.868,1.816,2.166,3.03c0.24,0.979-0.063,2.107-0.295,3.059  c-0.68,2.79-1.748,5.506-2.922,8.121c-0.998,2.222-2.083,4.828-3.835,6.58"></path>
<path fill="none" stroke="#000000" stroke-width="5" stroke-linecap="round" stroke-linejoin="round" stroke-miterlimit="10" d="  M603.375,639.375c-0.425-2.337-0.83-4.789-0.406-7.156c0.375-2.092,1.487-3.889,3.001-5.354c1.571-1.521,3.563-2.61,5.802-2.517  c1.694,0.07,4.064,0.976,4.354,2.902"></path>
<path fill="none" stroke="#000000" stroke-width="5" stroke-linecap="round" stroke-linejoin="round" stroke-miterlimit="10" d="  M592.125,627.625c-3.512,0-7.881,2.226-9.148,5.658c-0.705,1.911-0.437,4.291-0.205,6.273c0.107,0.926,0.263,1.849,0.488,2.754  c0.145,0.58,0.293,1.492,0.74,1.939"></path>
<path fill="none" stroke="#000000" stroke-width="5" stroke-linecap="round" stroke-linejoin="round" stroke-miterlimit="10" d="  M581,637.25c-1.24,3.298-2.999,6.489-5.108,9.309c-1.314,1.756-2.884,3.134-4.427,4.665c-1.422,1.413-2.647,3.027-3.815,4.652  c-3.044,4.238-5.717,8.769-8.108,13.402c-1.077,2.089-2.104,4.212-2.967,6.398c-0.532,1.348-1.161,2.851-1.199,4.323"></path>
<path fill="none" stroke="#000000" stroke-width="5" stroke-linecap="round" stroke-linejoin="round" stroke-miterlimit="10" d="  M581.125,643.5c-1.67,3.812-2.539,8.651-1.14,12.666c1.602,4.595,5.854,7.625,7.691,12.105c0.925,2.254,1.08,4.577,1.07,6.987  c-0.011,2.781-0.052,5.563-0.108,8.344c-0.056,2.714-0.125,5.427-0.225,8.139c-0.057,1.555,0.092,3.361-0.289,4.884"></path>
<path fill="none" stroke="#000000" stroke-width="5" stroke-linecap="round" stroke-linejoin="round" stroke-miterlimit="10" d="  M557.625,682c1.04,3.334,3.663,6.253,6.279,8.475c4.095,3.478,9.141,5.78,14.299,7.176c11.376,3.076,23.135,0.16,34.637,2.124  c12.037,2.056,23.792,5.744,35.573,8.883c5.898,1.571,11.817,3.146,17.821,4.262c4.656,0.865,9.441,1.49,14.185,1.135  c5.12-0.385,10.64-2.022,14.511-5.524c1.938-1.753,3.489-3.939,4.507-6.347c0.494-1.172,0.867-2.401,1.058-3.66  c0.146-0.954,0.096-1.918,0.256-2.87c0.372-2.201,0.938-4.341,1.036-6.584c0.095-2.142-0.171-4.29-0.813-6.337  c-1.075-3.424-3.127-6.456-5.548-9.072c-3.805-4.113-8.499-7.299-13.298-10.132c-4.395-2.595-8.987-4.895-13.812-6.575  c-3.482-1.213-7.07-2.062-10.725-2.548c-2.615-0.349-5.258-0.478-7.867-0.875c-2.437-0.37-4.453-1.227-6.638-2.325  c-3.647-1.834-7.512-3.233-11.079-5.227c-2.971-1.66-5.838-3.922-6.757-7.353"></path>
<path fill="none" stroke="#000000" stroke-width="5" stroke-linecap="round" stroke-linejoin="round" stroke-miterlimit="10" d="  M701.583,694.583c1.767,0.852,4.852,3.724,3.868,5.938c-1.013,2.278-1.485,4.908-2.054,7.32c-0.602,2.557-1.004,5.093-1.376,7.685  c-0.38,2.648-2.063,5.093-4.279,6.557c-1.532,1.012-3.389,1.51-5.145,1.986c-2.43,0.66-4.908,1.139-7.403,1.468  c-5.159,0.681-10.4,0.713-15.574,0.161c-6.173-0.659-12.144-2.297-18.079-4.06c-4.821-1.431-9.592-3.021-14.34-4.677  c-4.954-1.728-9.94-3.729-15.116-4.692c-6.017-1.118-12.309-0.436-18.338,0.223c-4.502,0.492-8.812,0.768-13.34,0.484  c-5.962-0.373-11.95-1.167-17.737-2.677c-2.645-0.689-5.266-1.539-7.738-2.711c-2.374-1.124-4.362-2.63-6.332-4.351  c-1.74-1.52-3.426-3.113-4.962-4.842c-1.119-1.26-2.302-2.63-2.975-4.188c-0.314-0.729-0.137-1.815-0.152-2.585  c-0.047-2.239-0.05-4.484,0.071-6.722c0.09-1.657,0.118-3.55,0.91-5.052c0.761-1.442,1.866-2.783,3.173-3.766"></path>
<path fill="none" stroke="#000000" stroke-width="4" stroke-linecap="round" stroke-linejoin="round" stroke-miterlimit="10" d="  M655.083,708.167c0.135-4.906,1.906-9.781,4.399-13.967c1.177-1.977,2.559-3.875,4.24-5.454c1.602-1.503,3.394-2.316,5.495-2.913  c4.236-1.203,9.582-1.313,12.793-4.714c1.638-1.735,2.824-3.937,3.615-6.176c0.758-2.146,1.364-4.828,0.457-7.026"></path>
<path fill="none" stroke="#000000" stroke-width="3" stroke-linecap="round" stroke-linejoin="round" stroke-miterlimit="10" d="  M598.75,697.417c2.604-3.431,5.251-6.828,7.94-10.191c1.909-2.387,3.837-4.763,5.852-7.062c1.028-1.173,2.289-3.033,3.765-3.695  c0.321-0.145,0.788,0.028,1.108,0.098c0.917,0.195,1.825,0.432,2.732,0.669c2.773,0.724,5.533,1.501,8.292,2.282  c5.476,1.551,10.935,3.159,16.408,4.716c0.504,0.144,1.007,0.293,1.516,0.421c0.417,0.104,0.166,0.762,0.08,1.028  c-0.755,2.338-2.188,4.535-3.425,6.638c-2.26,3.846-4.649,7.62-7.102,11.347"></path>
<path fill="none" stroke="#000000" stroke-width="3" stroke-linecap="round" stroke-linejoin="round" stroke-miterlimit="10" d="  M612.417,698.417c2.317-2.981,4.683-5.928,7.09-8.837c1.652-1.996,3.325-3.98,5.074-5.894c1.053-1.152,2.239-2.721,3.669-3.437"></path>
<path fill="none" stroke="#000000" stroke-width="3" stroke-linecap="round" stroke-linejoin="round" stroke-miterlimit="10" d="  M638.25,683.25c-1.923,3.065-3.84,6.135-5.75,9.208c-1.324,2.13-2.646,4.261-3.953,6.401c-0.423,0.691-0.844,1.384-1.257,2.082  c-0.134,0.226-0.54,0.696-0.54,0.976"></path>
<path fill="none" stroke="#000000" stroke-width="3" stroke-linecap="round" stroke-linejoin="round" stroke-miterlimit="10" d="  M625.261,652.256c-0.944,1.259-1.773,2.587-2.511,3.977c-0.32,0.602-2.163,3.451-1.52,3.916c1.372,0.95,2.802,1.818,4.276,2.601  c0.782,0.415,0.984,0.593,1.354-0.272c0.346-0.813,0.91-1.505,1.504-2.149c1.063-1.152,2.075-2.22,2.839-3.603  c0.396-0.717,0.788-1.437,1.182-2.154c0.375-0.683,0.911-1.412,1.053-2.19c0.27-1.504-2.969-2.066-4.019-2.378  c-0.369-0.108-0.739-0.211-1.111-0.307c-0.7-0.18-0.75-0.19-1.229,0.347C626.442,650.755,625.836,651.493,625.261,652.256  C625.085,652.49,625.62,651.779,625.261,652.256z"></path>
<path fill="none" stroke="#000000" stroke-width="3" stroke-linecap="round" stroke-linejoin="round" stroke-miterlimit="10" d="  M645.763,657.387c-1.961-0.966-4.094-1.579-6.268-1.806c-0.736-0.077-0.618-0.121-0.813,0.511c-0.147,0.477-0.443,0.891-0.731,1.291  c-0.585,0.811-1.101,1.658-1.559,2.547c-0.517,1.001-0.985,2.029-1.438,3.06c-0.184,0.417-0.357,0.84-0.497,1.273  c-0.07,0.216-0.131,0.434-0.182,0.654c-0.113,0.496-0.268,0.614,0.26,0.805c2.37,0.854,4.739,1.707,7.109,2.561  c0.228-0.868,0.457-1.742,0.814-2.567c0.411-0.949,1.049-1.752,1.587-2.627C645.106,661.365,645.447,659.353,645.763,657.387  C644.673,656.85,645.613,658.317,645.763,657.387z"></path>
<path fill="none" stroke="#000000" stroke-width="3" stroke-linecap="round" stroke-linejoin="round" stroke-miterlimit="10" d="  M647.112,669.015c0.232,0.441,1.038,0.49,1.449,0.589c0.87,0.209,1.743,0.405,2.618,0.589c1.626,0.341,3.26,0.64,4.901,0.895  c-0.26-2.58,1.217-4.891,2.335-7.091c0.261-0.512,0.509-1.029,0.722-1.563c0.127-0.317,0.241-0.641,0.338-0.969  c0.136-0.458,0.338-0.608-0.176-0.786c-1.265-0.437-2.557-0.795-3.866-1.07s-2.637-0.47-3.971-0.58  c-0.607-0.051-0.789,0.736-1.051,1.239c-0.334,0.639-0.652,1.285-0.956,1.939c-0.558,1.198-1.063,2.421-1.517,3.662  C647.687,666.56,646.729,668.291,647.112,669.015C647.178,669.139,647.052,668.9,647.112,669.015z"></path>
<path fill="none" stroke="#000000" stroke-width="3" stroke-linecap="round" stroke-linejoin="round" stroke-miterlimit="10" d="  M621.441,650.643c0.869,0.857,1.702,1.859,2.721,2.534"></path>
<path fill="none" stroke="#000000" stroke-width="3" stroke-linecap="round" stroke-linejoin="round" stroke-miterlimit="10" d="  M631.922,657.988c1.051,0.419,2.071,0.911,3.055,1.47"></path>
<path fill="none" stroke="#000000" stroke-width="3" stroke-linecap="round" stroke-linejoin="round" stroke-miterlimit="10" d="  M645.5,662.153c0.653-0.014,1.311,0.205,1.827,0.604"></path>
<path fill="none" stroke="#000000" stroke-width="3" stroke-linecap="round" stroke-linejoin="round" stroke-miterlimit="10" d="  M658.417,666.166c1.088,0.293,2.207,0.467,3.332,0.523"></path>
<path fill="none" stroke="#000000" stroke-width="3" stroke-linecap="round" stroke-linejoin="round" stroke-miterlimit="10" d="  M699.268,722.587c1.74-1.555,3.583-2.993,5.515-4.303c0.094,1.787-0.328,3.596-1.206,5.155c3.031-0.441,5.341-2.803,8.32-3.406  c0.125,1.131,0.066,2.281-0.17,3.395c2.594,0.484,5.374-0.147,7.506-1.701"></path>
<path fill="none" stroke="#000000" stroke-width="3" stroke-linecap="round" stroke-linejoin="round" stroke-miterlimit="10" d="  M420.858,721.236c1.15-1.408,2.058-3.015,2.669-4.728c-0.02,2.12-0.038,4.24-0.058,6.36c0.384-1.96,1.154-3.844,2.255-5.51  c0.009,1.381,0.017,2.761,0.025,4.142c0.594-0.194,1.28,0.304,1.817,0.494c0.625,0.222,1.278,0.368,1.938,0.434"></path>
<path fill="none" stroke="#000000" stroke-width="3" stroke-linecap="round" stroke-linejoin="round" stroke-miterlimit="10" d="  M403.006,794.346c1.949-3.063,4.226-5.919,6.783-8.497c0.509,2.024-1.134,4.622-1.995,6.374c-0.999,2.031-2.228,4.007-3.995,5.46  c2.339-3.287,5.021-6.329,7.99-9.06c0.337,1.534,0.604,3.226-0.549,4.492c-1.061,1.173-2.475,2.037-3.104,3.554  c3.184-2.795,7.015-4.848,11.105-5.949"></path>
<path fill="none" stroke="#000000" stroke-width="3" stroke-linecap="round" stroke-linejoin="round" stroke-miterlimit="10" d="  M107.771,824.084c3.143,0.795,6.243,1.76,9.28,2.893c-0.875-1.395-1.622-2.871-2.225-4.403c1.994,1.198,3.987,2.396,5.98,3.595  c-1.269-2.012-2.358-4.137-3.253-6.34c1.905,1.65,3.561,3.59,4.892,5.73c-1.036-2.531-2.072-5.063-3.108-7.595  c2.235,2.203,3.941,4.938,4.935,7.915"></path>
<path fill="none" stroke="#000000" stroke-width="4" stroke-linecap="round" stroke-linejoin="round" stroke-miterlimit="10" d="  M419.715,493.51c1.435,0.839,3.756-0.923,4.741-1.857c1.369-1.299,2.323-2.992,2.911-4.773c1.416-4.291,0.482-8.801-0.737-13.017  c-1.289-4.456-2.588-8.85-3.352-13.436c-0.783-4.706-1.173-9.474-1.256-14.243c1.326,3.859-1.266,7.971-2.209,11.631  c-1.062,4.121-1.837,8.372-2.452,12.582c-0.585,4.01-0.915,8.082-0.635,12.133c0.136,1.964,0.418,3.919,0.883,5.832  c0.233,0.96,0.513,1.909,0.84,2.842C418.712,491.951,418.97,493.075,419.715,493.51C419.982,493.666,419.49,493.379,419.715,493.51z  "></path>
<path fill="none" stroke="#000000" stroke-width="4" stroke-linecap="round" stroke-linejoin="round" stroke-miterlimit="10" d="  M250.751,229.801c-1.086,1.595-1.249,3.598-1.321,5.47c-0.068,1.766-0.077,3.583,1.306,4.879c2.644,2.479,7.146,1.773,10.254,0.757  c3.67-1.2,6.551-3.477,9.126-6.29c2.748-3.001,5.674-5.678,9.215-7.726c-4.994-1.249-10.179-1.77-15.319-1.455  c-2.531,0.155-5.071,0.495-7.538,1.091C254.33,227.044,252.043,227.903,250.751,229.801  C250.18,230.64,251.448,228.777,250.751,229.801z"></path>
<path fill="none" stroke="#000000" stroke-width="4" stroke-linecap="round" stroke-linejoin="round" stroke-miterlimit="10" d="  M192.021,313.195c6.555,1.053,8.114-6.852,9.36-11.522c0.771-2.89,1.36-5.925,2.45-8.715c0.516-1.321,1.26-2.454,2.233-3.482  c1.015-1.073,2.163-2.069,2.862-3.394c-3.939-0.08-7.934,0.639-11.499,2.347c-3.663,1.756-6.635,4.578-9.553,7.343  c-2.861,2.711-4.604,6.171-3.66,10.194C185.081,309.655,188.288,312.593,192.021,313.195  C192.316,313.243,190.397,312.933,192.021,313.195z"></path>
<path fill="none" stroke="#000000" stroke-width="4" stroke-linecap="round" stroke-linejoin="round" stroke-miterlimit="10" d="  M51.526,743.858c0.133,2.393,3.015,3.565,3.142,5.959"></path>
<path fill="none" stroke="#000000" stroke-width="4" stroke-linecap="round" stroke-linejoin="round" stroke-miterlimit="10" d="  M64.75,739.25c0,2.583,0,5.167,0,7.75"></path>
<path fill="none" stroke="#000000" stroke-width="4" stroke-linecap="round" stroke-linejoin="round" stroke-miterlimit="10" d="  M68.272,749.208c1.022,0.598,2.187-0.812,2.787-1.444c0.937-0.987,1.78-2.063,2.514-3.211"></path>
<path fill="none" stroke="#000000" stroke-width="4" stroke-linecap="round" stroke-linejoin="round" stroke-miterlimit="10" d="  M78.252,755.487c2.28,0.291,4.662-0.355,6.485-1.755"></path>
<path fill="none" stroke="#000000" stroke-width="4" stroke-linecap="round" stroke-linejoin="round" stroke-miterlimit="10" d="  M534.96,848.748c0.019,1.122,0.287,2.237,0.77,3.25c0.241,0.507,0.537,0.987,0.881,1.431c0.348,0.448,1.096,0.298,1.64,0.322"></path>
<path fill="none" stroke="#000000" stroke-width="4" stroke-linecap="round" stroke-linejoin="round" stroke-miterlimit="10" d="  M541.614,845.435c0.527,0.934,0.825,1.995,0.866,3.065"></path>
<path fill="none" stroke="#000000" stroke-width="4" stroke-linecap="round" stroke-linejoin="round" stroke-miterlimit="10" d="  M551.236,849.097c2.073-0.469,2.869-3.344,3.636-5.015"></path>
<path fill="none" stroke="#000000" stroke-width="4" stroke-linecap="round" stroke-linejoin="round" stroke-miterlimit="10" d="  M560.759,855.225c1.128-0.769,1.821-2.133,1.78-3.497"></path>
<path fill="none" stroke="#000000" stroke-width="4" stroke-linecap="round" stroke-linejoin="round" stroke-miterlimit="10" d="  M479.053,695.755c-0.208,2.188-0.01,4.412,0.579,6.528"></path>
<path fill="none" stroke="#000000" stroke-width="4" stroke-linecap="round" stroke-linejoin="round" stroke-miterlimit="10" d="  M487.217,693.507c0.287,1.392,0.381,2.825,0.273,4.242"></path>
<path fill="none" stroke="#000000" stroke-width="4" stroke-linecap="round" stroke-linejoin="round" stroke-miterlimit="10" d="  M493.646,701.544c0.516-1.652,2.543-2.994,2.203-4.872"></path>
<path fill="none" stroke="#000000" stroke-width="4" stroke-linecap="round" stroke-linejoin="round" stroke-miterlimit="10" d="  M749.328,712.725c0.476,1.338,0.952,2.676,1.429,4.013c0.363,1.021,0.659,2.531,1.724,3.07"></path>
<path fill="none" stroke="#000000" stroke-width="4" stroke-linecap="round" stroke-linejoin="round" stroke-miterlimit="10" d="  M762.357,711.213c0.361,1.051,0.492,2.18,0.387,3.286"></path>
<path fill="none" stroke="#000000" stroke-width="4" stroke-linecap="round" stroke-linejoin="round" stroke-miterlimit="10" d="  M772.295,720.314c1.487-1.044,2.612-2.595,3.143-4.333"></path>
</svg>