<svg xmlns="http://www.w3.org/2000/svg" xmlns:xlink="http://www.w3.org/1999/xlink" id="Layer_2" x="0px" y="0px" width="850.4px" height="481.9px" viewBox="0 0 850.4 481.9" xml:space="preserve">
<path fill="none" stroke="#000000" stroke-width="2.2769" stroke-linecap="round" stroke-linejoin="round" stroke-miterlimit="10" d="  M342.3,190.3c0,0.7-0.8,2.8-0.4,3.4c1.1,1.4,0.8-1.1,0.7-1.6c-0.1-0.5-0.3-0.9-0.2-1.5"></path>
<path fill="none" stroke="#000000" stroke-width="2.2769" stroke-linecap="round" stroke-linejoin="round" stroke-miterlimit="10" d="  M350.4,189.3c-0.2,0.5-1,3-0.1,3.2c0.9,0.1,0.6-2.4,0.3-2.8c0,0.2,0,0.4,0,0.6"></path>
<path fill="none" stroke="#000000" stroke-width="2.2769" stroke-linecap="round" stroke-linejoin="round" stroke-miterlimit="10" d="  M333,192.4c0,0-4.6-10-4-17c0.6-7,3.9-17.3,13.2-18.8c9.3-1.5,15.4,3.2,16.4,8c1,4.8-0.3,10.9-1.1,14.9c-0.8,4-1.5,10.5-1.1,11.9"></path>
<path fill="none" stroke="#000000" stroke-width="2.2769" stroke-linecap="round" stroke-linejoin="round" stroke-miterlimit="10" d="  M331.7,192.1c-0.6,0.1-16.1,5.9-16.3,21.3"></path>
<path fill="none" stroke="#000000" stroke-width="2.2769" stroke-linecap="round" stroke-linejoin="round" stroke-miterlimit="10" d="  M356.7,190.6c0.3-0.1,10.5-0.2,11.6,4.2c1.3,5-0.4,11.6-1.4,18.4c-1,6.8-2,18.7-1.5,26.1c0.5,7.3,1.6,13.8,2.7,19.7  c1.1,5.8,1.3,17.5-0.7,24.9c-1.9,7.3-6.4,16.1-16.6,23.2"></path>
<path fill="none" stroke="#000000" stroke-width="2.2769" stroke-linecap="round" stroke-linejoin="round" stroke-miterlimit="10" d="  M329.4,182.6c-0.2-0.3-12.4,2.2-15.8,7.8c-3.4,5.6,0.1,11.5,5.7,9.6"></path>
<path fill="none" stroke="#000000" stroke-width="2.2769" stroke-linecap="round" stroke-linejoin="round" stroke-miterlimit="10" d="  M328.5,177.7c-0.5-0.1-13.3,0.8-19,7.9c-5.6,7.1-4.6,13.1-2.1,14.8c2.4,1.7,4,1.9,7.8,0.2"></path>
<path fill="none" stroke="#000000" stroke-width="2.2769" stroke-linecap="round" stroke-linejoin="round" stroke-miterlimit="10" d="  M311,183.5c-0.4-0.1-8.3,3.6-9.6,12c-1.4,8.4,5.1,7.8,9.1,6.5"></path>
<path fill="none" stroke="#000000" stroke-width="2.2769" stroke-linecap="round" stroke-linejoin="round" stroke-miterlimit="10" d="  M317.4,201.2c-0.6,0.3-5.6,3.9-6.4,10.2"></path>
<path fill="none" stroke="#000000" stroke-width="2.2769" stroke-linecap="round" stroke-linejoin="round" stroke-miterlimit="10" d="  M311,211.4"></path>
<path fill="none" stroke="#000000" stroke-width="2.0243" stroke-linecap="round" stroke-linejoin="round" stroke-miterlimit="10" d="  M315.9,188.7c1.1,1.2,2.6,3.3,4.4,3.6c2.6,0.5,4-2.3,3-4.5c-0.5-1.2-1.7-1.8-2.8-2.4"></path>
<path fill="none" stroke="#000000" stroke-width="2.0243" stroke-linecap="round" stroke-linejoin="round" stroke-miterlimit="10" d="  M307,190.7c1.6,0.9,3.6,1.6,5.4,0.8c1.7-0.8,2.5-2.7,1.3-4.3c-0.9-1.2-2.8-1.6-4.2-1.9"></path>
<path fill="none" stroke="#000000" stroke-width="2.0243" stroke-linecap="round" stroke-linejoin="round" stroke-miterlimit="10" d="  M312.4,191.5"></path>
<path fill="none" stroke="#000000" stroke-width="2.2769" stroke-linecap="round" stroke-linejoin="round" stroke-miterlimit="10" d="  M359.5,202.9c-0.3-0.2-20.2,0.4-24.5,6.7c-4.2,6.3-9.3,18.6-9.8,25.8c-0.5,7.2,0.2,20.5,2.5,30.6c2.4,10.1,5.4,16.5,10.8,17  c5.4,0.4,8.5-2.6,10-6c1.4-3.4,7.7-13.4,13.1-12.8"></path>
<path fill="none" stroke="#000000" stroke-width="2.2769" stroke-linecap="round" stroke-linejoin="round" stroke-miterlimit="10" d="  M357.9,264.6c-0.3-0.8-2.4-9.1-2.6-16.6c-0.2-7.5,0.5-23.2,1.2-26.7c0.7-3.5,3.3-17.9,1.2-18.1"></path>
<path fill="none" stroke="#000000" stroke-width="2.2769" stroke-linecap="round" stroke-linejoin="round" stroke-miterlimit="10" d="  M351,204.2c0,0,1.2,14.3-0.9,16.9s-14,5.2-22.3,6"></path>
<path fill="none" stroke="#000000" stroke-width="2.2769" stroke-linecap="round" stroke-linejoin="round" stroke-miterlimit="10" d="  M325.7,251c0.8-5.3,3.5-9,7.8-10.4c3.5-1.1,6.3,2,7.4,4"></path>
<path fill="none" stroke="#000000" stroke-width="2.2769" stroke-linecap="round" stroke-linejoin="round" stroke-miterlimit="10" d="  M337.9,240.2c0.3-0.2,3.5-3.3,7.3-1.4c3.9,1.9,4.6,5.7,4.8,9.4c0.2,3.7-1.9,6.7-4.6,7.2c-3.7,0.7-6.7-2-11.7-3.7"></path>
<path fill="none" stroke="#000000" stroke-width="2.2769" stroke-linecap="round" stroke-linejoin="round" stroke-miterlimit="10" d="  M338.7,255c-0.8,0.9-4.7,11.7-0.8,18"></path>
<path fill="none" stroke="#000000" stroke-width="2.2769" stroke-linecap="round" stroke-linejoin="round" stroke-miterlimit="10" d="  M332.7,277.9c0,0,8.2-7.3,15.4-9.1c2.6-0.7,3.1,2.6,3.1,2.6"></path>
<path fill="none" stroke="#000000" stroke-width="2.2769" stroke-linecap="round" stroke-linejoin="round" stroke-miterlimit="10" d="  M348.1,268.8"></path>
<path fill="none" stroke="#000000" stroke-width="7.085" stroke-linecap="round" stroke-linejoin="round" stroke-miterlimit="10" d="  M328,241.4l1.6-10.7c0.4-1,2.4,0.3,5.9-1.1c30.2-11.6-4.1,9.2-1.9,8.1c14.8-7.1,12.6-1.7,13.8-1.3c2.5,0.9,5.4-11.1,6.1-14.7  c0.8-4.3,0.1-11.1,0.8-15.3c5.8-5-2.1,25.4-2.1,32.1c0,5.3,1.9,19.5,3.4,25c-0.1,0.5-1.4-0.3-3.7,2.8c0.2,1.4-4.7-2.1-6.7-1.6  c-2.2,0.5-2.9,3.8-5.4,4.3c-0.3-6.9-0.9-13.1,6.8-10.2l4.3-2.8l0.4,4.6"></path>
<path fill="none" stroke="#000000" stroke-width="7.085" stroke-linecap="round" stroke-linejoin="round" stroke-miterlimit="10" d="  M329.6,230.7"></path>
<path fill="none" stroke="#000000" stroke-width="2.2769" stroke-linecap="round" stroke-linejoin="round" stroke-miterlimit="10" d="  M297.4,192.3c0-0.8,0.1-12.8,1.6-17.1c1.5-4.3,3.9-10.4,4.4-8.6s0.6,13.5,1,13c0.4-0.5,3.7-10.1,8.2-13.8c4.6-3.7,9.2-6.7,9.5-5.2  c0.3,1.5-4.2,13.3-3.3,13.9c0.9,0.6,7.2-6.6,11.5-8.4"></path>
<path fill="none" stroke="#000000" stroke-width="2.2769" stroke-linecap="round" stroke-linejoin="round" stroke-miterlimit="10" d="  M358.3,177.1c0.5,0.3,14.2,5.1,26.5,15.2c12.3,10.1,16.8,13.2,23.4,23.4c6.6,10.2,15.7,20.1,15.3,26.2c-0.4,6.1-1.4,10.5-1.4,10.5"></path>
<path fill="none" stroke="#000000" stroke-width="2.2769" stroke-linecap="round" stroke-linejoin="round" stroke-miterlimit="10" d="  M401.9,243.3c0,0,0.3-5.3-0.5-7.8c-0.8-2.5-8.6-17.3-11.8-22c-2.3-3.4-6.2-7.7-9.6-9.7c-3.4-2-11.1-1-11.1-1"></path>
<path fill="none" stroke="#000000" stroke-width="2.2769" stroke-linecap="round" stroke-linejoin="round" stroke-miterlimit="10" d="  M384.9,271.1c-0.1-0.4-1-9.5,0.1-11.4c1.1-1.9,6.1-5.1,6.7-7.3c0.6-2.3,0.5-8,2.8-8.2c2.3-0.3,11.6-0.9,21.4,4.4  c9.7,5.3,11.4,11.4,11.6,16.8c0.3,5.4-2.3,5.3-4,5.9c-1.8,0.6-6.1,2.4-6.7,6.1c-0.6,3.7-2.5,6.7-4.4,8.9c-1.9,2.1-7.6,2.8-8.1,2.4"></path>
<path fill="none" stroke="#000000" stroke-width="2.2769" stroke-linecap="round" stroke-linejoin="round" stroke-miterlimit="10" d="  M389.4,267.4c0.1-0.4,0.5-2.4,6.8-0.4c6.3,2,11.8,9.6,12.1,13.7c0.4,4-0.1,4.7-0.1,4.7"></path>
<path fill="none" stroke="#000000" stroke-width="2.2769" stroke-linecap="round" stroke-linejoin="round" stroke-miterlimit="10" d="  M368.9,273.7c0.6,1,7.8,11.1,7.3,29.1c-0.5,18-0.5,18.4-1.4,17.5c-0.9-0.9-7.6-14.4-13.2-14.5c-0.8,1.4,7.5,6.5,8.5,8"></path>
<path fill="none" stroke="#000000" stroke-width="2.2769" stroke-linecap="round" stroke-linejoin="round" stroke-miterlimit="10" d="  M370.7,276.3c0.6-0.1,13.7-2,20-9.4"></path>
<path fill="none" stroke="#000000" stroke-width="2.2769" stroke-linecap="round" stroke-linejoin="round" stroke-miterlimit="10" d="  M408.4,282.7c0,0-12.3,16.1-25.2,27.6"></path>
<path fill="none" stroke="#000000" stroke-width="2.2769" stroke-linecap="round" stroke-linejoin="round" stroke-miterlimit="10" d="  M269.1,272.4c0,0-2.4-5.6-2.5-9.5c-0.1-3.9-2.8-15.8-2.9-21.1c-0.1-5.3,0.6-14.9,2.8-21.4c2.1-6.5,7.6-16.6,11.3-18.9  c3.7-2.3,12.5-3.5,11.9,6.2"></path>
<path fill="none" stroke="#000000" stroke-width="2.2769" stroke-linecap="round" stroke-linejoin="round" stroke-miterlimit="10" d="  M274.1,237c0,0,3.8-12.5,8.1-19.6c4.3-7.1,10.1-12.4,13.4-10.6c3.3,1.8,6.2,4.8,5.1,9.7c-1.1,4.9-16.3,18.7-17.2,23.1"></path>
<path fill="none" stroke="#000000" stroke-width="2.2769" stroke-linecap="round" stroke-linejoin="round" stroke-miterlimit="10" d="  M284.1,238.8c0,0,11.1-10.4,13.3-12.4c2.2-2,3.5-3.8,6.3-2.5c2.8,1.3,4.8,6.7,3,9.4c-1.8,2.7-9.1,9.5-12.1,11.5  c-3,2-6.6,5.9-7.6,8.5c-1,2.5-2.1,9.9-3.7,15.3c-1.5,5.4-4.8,11.4-10.9,14.3c-6.1,2.9-14.8,3.8-23.8,6.3c-9,2.5-25.6,7.1-33.8,5.6  c-8.2-1.5-13.4-8-12-17c1.4-9,9.1-12.5,19.4-12.6c10.2-0.1,22.9,1.8,30,3c7.1,1.3,13.7,0.8,14.8,0.3"></path>
<path fill="none" stroke="#000000" stroke-width="2.2769" stroke-linecap="round" stroke-linejoin="round" stroke-miterlimit="10" d="  M303.8,223.8"></path>
<path fill="none" stroke="#000000" stroke-width="2.0243" stroke-linecap="round" stroke-linejoin="round" stroke-miterlimit="10" d="  M276.7,208c1.2,1,2.9,2.7,4.6,3.5c1.7-2.1,2.6-3.9,0.3-5.7c-2.4-1.9-3.6-0.3-4.9,2"></path>
<path fill="none" stroke="#000000" stroke-width="2.0243" stroke-linecap="round" stroke-linejoin="round" stroke-miterlimit="10" d="  M288.6,214.6c1.6,1.5,4.7,6.9,6,2.4c0.5-1.8-1.8-5.8-4.1-5.3c-1,0.2-1.8,2-2,2.8"></path>
<path fill="none" stroke="#000000" stroke-width="2.0243" stroke-linecap="round" stroke-linejoin="round" stroke-miterlimit="10" d="  M297.6,229.6c0.5,1.3,2.2,4.6,3.7,5.5c3.6-1.8,1.3-6.1-0.8-8.2c-0.8,0.9-1.9,1.6-2.8,2.4"></path>
<path fill="none" stroke="#000000" stroke-width="2.0243" stroke-linecap="round" stroke-linejoin="round" stroke-miterlimit="10" d="  M301.2,235.2"></path>
<path fill="none" stroke="#000000" stroke-width="2.2773" stroke-linecap="round" stroke-linejoin="round" stroke-miterlimit="10" d="  M265.3,222.1c0,0-4.3-9.1-3.9-10.5c0.4-1.4,10.8-12.7,16.7-17.2c5.9-4.6,8.7-4.6,12-4.7c3.3-0.1,7.1,1.5,9.5,7.6  c2.4,6.1,21.9,50.1,22,51.1c0.1,1,2.2,6.7-0.4,8.5c-2.5,1.8-20.6,15.2-22.3,16.1c-1.6,0.9-4.2,1.5-6.1,0.3  c-1.9-1.3-7.6-11.3-7.6-11.3"></path>
<path fill="none" stroke="#000000" stroke-width="2.2773" stroke-linecap="round" stroke-linejoin="round" stroke-miterlimit="10" d="  M290.1,189.7"></path>
<path fill="none" stroke="#000000" stroke-width="2.2769" stroke-linecap="round" stroke-linejoin="round" stroke-miterlimit="10" d="  M311.2,264.3c-0.1,1,1,9.2,0.8,11.3c-0.3,2,2.7,9.1,11.4,14.8c8.7,5.7,14.8,9.4,16.3,10.4c1.5,1,3.3,3.2,4.8,8c1.5,4.8,3.4,7.8,4,9  c0.6,1.1,3.2,2.1,3.2,2.1"></path>
<path fill="none" stroke="#000000" stroke-width="2.2769" stroke-linecap="round" stroke-linejoin="round" stroke-miterlimit="10" d="  M352.8,319.5c0.3-0.8,2.5-9.2,4.4-12.6c1.9-3.4,5.3-10.1,6.1-12.3"></path>
<path fill="none" stroke="#000000" stroke-width="2.2769" stroke-linecap="round" stroke-linejoin="round" stroke-miterlimit="10" d="  M359.9,300.5c-1.7,1.6-2,3.7-4.7,3.9"></path>
<path fill="none" stroke="#000000" stroke-width="2.2769" stroke-linecap="round" stroke-linejoin="round" stroke-miterlimit="10" d="  M311.2,269.8c-0.6,0.4-2.3,5.7-3,8.1c-0.8,2.4,3.4,17.6,9.2,28c5.8,10.4,9.5,14.7,11.1,15.2c1.6,0.5,4-4.2,5.8-7  c1.8-2.8,4-5.8,4.6-5.6c0.5,0.3-3.2,5.1-4.9,7.2"></path>
<path fill="none" stroke="#000000" stroke-width="2.2769" stroke-linecap="round" stroke-linejoin="round" stroke-miterlimit="10" d="  M280.2,276.6c0.2-0.5,18.2,1.5,27.7,0.2"></path>
<path fill="none" stroke="#000000" stroke-width="2.2769" stroke-linecap="round" stroke-linejoin="round" stroke-miterlimit="10" d="  M274.6,281.3c0,0,3.5,7.6,1.4,16c-2.2,8.4-5.7,10.1-9.3,9.4c-3.5-0.7-9.6-4.2-12.1-4.9c-2.5-0.7-4.2,0-8.8,2.7  c-4.6,2.7-8.1,1.7-10-0.7c-1.9-2.4-1.7-7.1-1.7-7.1"></path>
<path fill="none" stroke="#000000" stroke-width="2.2769" stroke-linecap="round" stroke-linejoin="round" stroke-miterlimit="10" d="  M223.5,294.6c0.7-0.2,19.4,1.4,19.4,1.4"></path>
<path fill="none" stroke="#000000" stroke-width="2.2769" stroke-linecap="round" stroke-linejoin="round" stroke-miterlimit="10" d="  M244.4,290.6c0.2,1,0.2,7.3-3.4,11"></path>
<path fill="none" stroke="#000000" stroke-width="2.2769" stroke-linecap="round" stroke-linejoin="round" stroke-miterlimit="10" d="  M276,297.3c0,0,26,5.2,31.5,12.5c2.5,12.8,12.1,73.6,20.6,90.3"></path>
<path fill="none" stroke="#000000" stroke-width="2.2769" stroke-linecap="round" stroke-linejoin="round" stroke-miterlimit="10" d="  M336.1,313.2c0,0,11.5,6.6,15.1,7.1"></path>
<path fill="none" stroke="#000000" stroke-width="2.2769" stroke-linecap="round" stroke-linejoin="round" stroke-miterlimit="10" d="  M332.7,317.7c0.6,0.6,8.4,3.8,13.7,4.8"></path>
<path fill="none" stroke="#000000" stroke-width="2.2769" stroke-linecap="round" stroke-linejoin="round" stroke-miterlimit="10" d="  M347.5,323.5c0-0.5,2.5-3.3,6.7-4c4.2-0.8,7.1-0.5,7.1-0.5s2,8.7,2,13.8c0,5.1-1.6,8.9-1.6,8.9s-7.3,0.9-8.2,0.8  C352.6,342.3,347,337.2,347.5,323.5z"></path>
<path fill="none" stroke="#000000" stroke-width="2.2769" stroke-linecap="round" stroke-linejoin="round" stroke-miterlimit="10" d="  M365,309.9c-0.8,0.8-5.2,7.8-5.4,8.4"></path>
<path fill="none" stroke="#000000" stroke-width="2.2769" stroke-linecap="round" stroke-linejoin="round" stroke-miterlimit="10" d="  M362,320c0.4-0.5,7.7-6.5,7.7-6.5"></path>
<path fill="none" stroke="#000000" stroke-width="2.2769" stroke-linecap="round" stroke-linejoin="round" stroke-miterlimit="10" d="  M353.5,342.4c0,0.9-7.1,40-3.8,51.2"></path>
<path fill="none" stroke="#000000" stroke-width="2.2769" stroke-linecap="round" stroke-linejoin="round" stroke-miterlimit="10" d="  M360.8,342.1c-0.1,0.6,5.8,36.9,7.7,44.3"></path>
<path fill="none" stroke="#000000" stroke-width="2.2769" stroke-linecap="round" stroke-linejoin="round" stroke-miterlimit="10" d="  M361.3,347.1c0.4,0.1,13.5,29.1,18.3,35.9"></path>
<path fill="none" stroke="#000000" stroke-width="2.2769" stroke-linecap="round" stroke-linejoin="round" stroke-miterlimit="10" d="  M381.8,305.9c0,1.3,9.1,48.1,22.3,68.8"></path>
<path fill="none" stroke="#000000" stroke-width="2.2769" stroke-linecap="round" stroke-linejoin="round" stroke-miterlimit="10" d="  M404.1,374.8"></path>
<path fill="none" stroke="#000000" stroke-width="3.0364" stroke-linecap="round" stroke-linejoin="round" stroke-miterlimit="10" d="  M249.5,431.4c0,0,159.2-58.4,160.2-58.4"></path>
<path fill="none" stroke="#000000" stroke-width="3.0364" stroke-linecap="round" stroke-linejoin="round" stroke-miterlimit="10" d="  M304.4,409.4l-25.6-110.6"></path>
<path fill="none" stroke="#000000" stroke-width="3.0364" stroke-linecap="round" stroke-linejoin="round" stroke-miterlimit="10" d="  M390.4,303.9l20.5,66.8"></path>
<path fill="none" stroke="#000000" stroke-width="3.0364" stroke-linecap="round" stroke-linejoin="round" stroke-miterlimit="10" d="  M410.9,370.7"></path>
<path fill="none" stroke="#000000" stroke-width="4.0486" stroke-linecap="round" stroke-linejoin="round" stroke-miterlimit="10" d="  M295.2,303.6c-5.3-1.7-10.2-0.7-13.3,2.9c-0.1,0-0.1,0-0.2,0c-1.6-4.7-0.4-5.7,3.5-5.8"></path>
<path fill="none" stroke="#000000" stroke-width="4.0486" stroke-linecap="round" stroke-linejoin="round" stroke-miterlimit="10" d="  M295.2,303.6"></path>
<path fill="none" stroke="#000000" stroke-width="2.2769" stroke-linecap="round" stroke-linejoin="round" stroke-miterlimit="10" d="  M413.7,367.4c0,0-38,84.6-38,89c0,4.4,1,4.4,15.2,6.4c14.2,2,85,11.5,86.7,10.1c1.7-1.4,12.5-99.2,12.1-100.9  c-0.3-1.7,1.4-7.1-8.4-7.4C471.5,364.3,415.4,364.1,413.7,367.4z"></path>
<path fill="none" stroke="#000000" stroke-width="2.2769" stroke-linecap="round" stroke-linejoin="round" stroke-miterlimit="10" d="  M376.5,457.5c0-0.8-4-3.3,19.5-3.8c23.5-0.5,81.2-0.8,82.5-1.3"></path>
<polyline fill="none" stroke="#000000" stroke-width="2.2769" stroke-linecap="round" stroke-linejoin="round" stroke-miterlimit="10" points="  430.9,373.5 406.4,442.3 465.8,442.1 475.9,374 432.2,373.8 "></polyline>
<line fill="none" stroke="#000000" stroke-width="2.2769" stroke-linecap="round" stroke-linejoin="round" stroke-miterlimit="10" x1="440.9" y1="374.4" x2="421.5" y2="440.4"></line>
<line fill="none" stroke="#000000" stroke-width="2.2769" stroke-linecap="round" stroke-linejoin="round" stroke-miterlimit="10" x1="452.2" y1="374.4" x2="436.7" y2="440.7"></line>
<line fill="none" stroke="#000000" stroke-width="2.2769" stroke-linecap="round" stroke-linejoin="round" stroke-miterlimit="10" x1="464.7" y1="374.3" x2="453.9" y2="441.4"></line>
<line fill="none" stroke="#000000" stroke-width="2.2769" stroke-linecap="round" stroke-linejoin="round" stroke-miterlimit="10" x1="411.4" y1="430.9" x2="467.3" y2="430.1"></line>
<line fill="none" stroke="#000000" stroke-width="2.2769" stroke-linecap="round" stroke-linejoin="round" stroke-miterlimit="10" x1="415.6" y1="418.6" x2="468.4" y2="418.8"></line>
<line fill="none" stroke="#000000" stroke-width="2.2769" stroke-linecap="round" stroke-linejoin="round" stroke-miterlimit="10" x1="431" y1="409" x2="470.1" y2="408"></line>
<line fill="none" stroke="#000000" stroke-width="2.2769" stroke-linecap="round" stroke-linejoin="round" stroke-miterlimit="10" x1="434.5" y1="400.2" x2="471.1" y2="398.7"></line>
<line fill="none" stroke="#000000" stroke-width="2.2769" stroke-linecap="round" stroke-linejoin="round" stroke-miterlimit="10" x1="425.1" y1="391.3" x2="472.3" y2="389.9"></line>
<line fill="none" stroke="#000000" stroke-width="2.2769" stroke-linecap="round" stroke-linejoin="round" stroke-miterlimit="10" x1="428.3" y1="382.4" x2="472.7" y2="382"></line>
<path fill="none" stroke="#000000" stroke-width="2.2769" stroke-linecap="round" stroke-linejoin="round" stroke-miterlimit="10" d="  M316.4,433.1c0,0-15.3,2.2-16,20.3c-0.7,18,14,26,24.5,23.9c10.5-2,16.5-7.8,18.2-16.7c1.7-8.9-0.7-14.3-4.2-19.1  C335.3,436.8,324.2,431.5,316.4,433.1z"></path>
<path fill="none" stroke="#000000" stroke-width="2.2769" stroke-linecap="round" stroke-linejoin="round" stroke-miterlimit="10" d="  M317.8,454.6c0,0-0.3-4.2,2.8-4.8c3-0.6,6.4,1.6,7.3,5.2c0.9,3.5,1.6,7-0.4,8.9c-2,1.9-5.3,1.3-5.3,1.3L317.8,454.6z"></path>
<path fill="none" stroke="#000000" stroke-width="2.2769" stroke-linecap="round" stroke-linejoin="round" stroke-miterlimit="10" d="  M317.3,452.6c0,0-10,3.7-13.4,15.1"></path>
<path fill="none" stroke="#000000" stroke-width="2.2769" stroke-linecap="round" stroke-linejoin="round" stroke-miterlimit="10" d="  M324.4,449.9c0,0,12.5-1.8,18.9,4.8"></path>
<path fill="none" stroke="#000000" stroke-width="2.2769" stroke-linecap="round" stroke-linejoin="round" stroke-miterlimit="10" d="  M325.6,465.2c0,0,1.3,6.3,1.5,10.9"></path>
<path fill="none" stroke="#000000" stroke-width="2.2769" stroke-linecap="round" stroke-linejoin="round" stroke-miterlimit="10" d="  M327.2,476.1"></path>
<path fill="none" stroke="#000000" stroke-width="1.0121" stroke-linecap="round" stroke-linejoin="round" stroke-miterlimit="10" d="  M321.7,453c0,0,2-1.4,4.4-0.8"></path>
<path fill="none" stroke="#000000" stroke-width="1.0121" stroke-linecap="round" stroke-linejoin="round" stroke-miterlimit="10" d="  M323.1,456c0,0,2.2-1.5,4.4-1.3"></path>
<path fill="none" stroke="#000000" stroke-width="1.0121" stroke-linecap="round" stroke-linejoin="round" stroke-miterlimit="10" d="  M324,458.9c0,0,2.4-1.4,4.2-1"></path>
<path fill="none" stroke="#000000" stroke-width="1.0121" stroke-linecap="round" stroke-linejoin="round" stroke-miterlimit="10" d="  M324.8,461.6c0,0,1.6-0.8,3.5-0.8"></path>
<path fill="none" stroke="#000000" stroke-width="1.0121" stroke-linecap="round" stroke-linejoin="round" stroke-miterlimit="10" d="  M324.8,461.6"></path>
<path fill="none" stroke="#000000" stroke-width="3.0364" stroke-linecap="round" stroke-linejoin="round" stroke-miterlimit="10" d="  M436.1,364.5c1.3-0.4,62.1-24.2,62.1-24.2"></path>
<path fill="none" stroke="#000000" stroke-width="3.0364" stroke-linecap="round" stroke-linejoin="round" stroke-miterlimit="10" d="  M491.9,333.8c0,0-6.8-5.1-6.6-8.1c0.3-3,13.9-100.2,13.7-101c-0.3-0.8,8.9-61,9.6-61.7c0.8-0.8,2.3-5.3,18.2-3.3  c15.9,2,113.9,15.9,114.6,15.9s21.5,3.3,30.9,5.3c9.4,2,27.1,5.3,27.3,8.6c0.3,3.3-20.7,96.1-20.5,97.4c0.3,1.3-23,125.3-24.8,129.6  c-1.8,4.3-19,8.6-27.1,11.9c-8.1,3.3-13.2-1.3-14.9-2.5C610.6,424.6,491.9,333.8,491.9,333.8z"></path>
<path fill="none" stroke="#000000" stroke-width="3.0364" stroke-linecap="round" stroke-linejoin="round" stroke-miterlimit="10" d="  M525,360.1c0,0.8,4.1,25.6,4.1,25.6l-32.1,7.3c0,0,44.3,47.6,44.8,46.6c0.5-1,44.5-8.9,44.5-9.9c0-1-5.1-26.8-5.1-27.6"></path>
<path fill="none" stroke="#000000" stroke-width="3.0364" stroke-linecap="round" stroke-linejoin="round" stroke-miterlimit="10" d="  M529.1,385.6c0.3-0.3,56.2,43.8,56.2,43.8"></path>
<path fill="none" stroke="#000000" stroke-width="3.0364" stroke-linecap="round" stroke-linejoin="round" stroke-miterlimit="10" d="  M494.9,321.6c0,0,0-15.7,4.3-49.6c4.3-33.9,14.7-99.9,17.5-99.2c2.8,0.8,126,22.3,129.8,24c3.8,1.8,2.8,4.8,0.8,17.2  c-2,12.4-27.8,154.4-28.1,155.1c-0.3,0.8-5.3,37.7-7.6,38.2C609.3,407.9,494.9,321.6,494.9,321.6z"></path>
<path fill="none" stroke="#000000" stroke-width="3.0364" stroke-linecap="round" stroke-linejoin="round" stroke-miterlimit="10" d="  M499.2,272"></path>
<path fill="none" stroke="#000000" stroke-width="5.0607" stroke-linecap="round" stroke-linejoin="round" stroke-miterlimit="10" d="  M508,298.5c0,0-5.8-4.3,0.8-14.7c6.6-10.4,51.9-73.9,51.9-73.9s3-4.6,7.1,2.5c4.1,7.1,23.3,81.5,23.5,82.5c0.3,1,12.1,42,11.6,46.3  c-0.5,4.3-5.6,5.6-13,1.1C582.5,337.8,508,298.5,508,298.5z"></path>
<path fill="none" stroke="#000000" stroke-width="5.0607" stroke-linecap="round" stroke-linejoin="round" stroke-miterlimit="10" d="  M567.7,212.4"></path>
<path fill="none" stroke="#FFDE17" stroke-width="8.0971" stroke-linecap="round" stroke-linejoin="round" stroke-miterlimit="10" d="  M520.2,297.8c0,0.3-10.3-3.2-8.8-7.1c1.8-4.7,36.4-51.8,36.4-51.8s16.5-24.5,16-23.8c-0.5,0.7,31.4,113.9,31.4,113.9l2.2,10.3  l-76.6-41.2"></path>
<path fill="none" stroke="#FFDE17" stroke-width="8.0971" stroke-linecap="round" stroke-linejoin="round" stroke-miterlimit="10" d="  M511.4,290.7"></path>
<path fill="none" stroke="#FFDE17" stroke-width="12.1457" stroke-linecap="round" stroke-linejoin="round" stroke-miterlimit="10" d="  M520.4,291.1c2.5-11.9,12.5-15.1,15-19.9c2-3.9,6.1-6.3,10-12c10-15,15.9-28.1,16.9-29c2.5,16.4-12.9,36-21.2,48.8  c-2.8,4.2-9.2,7.1-10.3,12.1c-2.9,12.8,13.8,5.7,20.6-7.8c3.6-7.2,11.6-25.6,17-33.9c10.3,36.6-33.4,51.1-23.1,56.9  c18,10.1,28.8-35,31.5-29.7c10,19.6-25.4,45.1-12.1,36.9c11-6.7,13.8,27.3,16.2-14c0.4-1.1,0.7,24.6,10,30.5"></path>
<path fill="none" stroke="#FFDE17" stroke-width="12.1457" stroke-linecap="round" stroke-linejoin="round" stroke-miterlimit="10" d="  M535.4,271.2"></path>
<path fill="none" stroke="#000000" stroke-width="8.0971" stroke-linecap="round" stroke-linejoin="round" stroke-miterlimit="10" d="  M554.8,280.6c-0.3-0.4-0.2,1.4-0.7-1.9c-0.8-5.2,1.2-34.1,1.7-35.4c0.7-1.8,8.2,0.4,7.6,2.7C561.4,253.6,556,282.3,554.8,280.6z"></path>
<path fill="none" stroke="#000000" stroke-width="8.0971" stroke-linecap="round" stroke-linejoin="round" stroke-miterlimit="10" d="  M563.4,246"></path>
<path fill="none" stroke="#000000" stroke-width="8.8448" stroke-linecap="round" stroke-linejoin="round" stroke-miterlimit="10" d="  M553.9,301.1c1.5-1.9-0.1-8.5-3.7-5.6c-1.9,1.6-0.2,10.2,4.1,7.2c1.3-0.9,0.7-3.3-0.1-4.3c-0.6,0-0.4,0.3-0.8,0.4"></path>
<path fill="none" stroke="#000000" stroke-width="8.8448" stroke-linecap="round" stroke-linejoin="round" stroke-miterlimit="10" d="  M553.9,301.1"></path>
<path fill="none" stroke="#000000" stroke-width="2.2769" stroke-linecap="round" stroke-linejoin="round" stroke-miterlimit="10" d="  M418.5,204.4c1.2-3.3,13.6-12.3,15.5-6.2c1.4,4.3-13,3.8-15.9,5.6"></path>
<path fill="none" stroke="#000000" stroke-width="2.2769" stroke-linecap="round" stroke-linejoin="round" stroke-miterlimit="10" d="  M383.1,167.3c1.4-3.1,8.4-16.3,13.5-12.5c6.8,5.1-11.2,10.5-13.5,12.8"></path>
<path fill="none" stroke="#000000" stroke-width="2.2769" stroke-linecap="round" stroke-linejoin="round" stroke-miterlimit="10" d="  M347.7,145.3c-4.6-2-1.8-11.3,3.2-10.5c7.3,1.2-2.5,8.9-4.3,10.8"></path>
<path fill="none" stroke="#000000" stroke-width="2.2769" stroke-linecap="round" stroke-linejoin="round" stroke-miterlimit="10" d="  M271.7,163.6c-2.7-2.8-9.4-8.7-13.5-8.2c-2.7,0.3-6.2,3-4.8,6.1c1.2,2.8,5.6,2,8,2.2c3.2,0.2,6.3,0.4,9.4-0.8"></path>
<path fill="none" stroke="#000000" stroke-width="2.2769" stroke-linecap="round" stroke-linejoin="round" stroke-miterlimit="10" d="  M234.6,202.4c-3.2-1-18.8-1.2-16.1,5.6C221.1,214.6,232.1,204.4,234.6,202.4"></path>
<path fill="none" stroke="#000000" stroke-width="2.2769" stroke-linecap="round" stroke-linejoin="round" stroke-miterlimit="10" d="  M218.5,208"></path>
<path fill="none" stroke="#000000" stroke-width="3.0364" stroke-linecap="round" stroke-linejoin="round" stroke-miterlimit="10" d="  M168.2,94.1c0,1,37.1,87.7,37.1,87.7l15.5-14.8l-14.8-30l9.8-6.4l15.2,29l12.5-10.5l-32.7-83l-15.5,9.8l13.8,34.8l-11.8,5.7  c0,0-13.5-34.4-14.5-33.1C181.7,84.6,168.2,94.1,168.2,94.1z"></path>
<path fill="none" stroke="#000000" stroke-width="3.0364" stroke-linecap="round" stroke-linejoin="round" stroke-miterlimit="10" d="  M216.7,61.3c0,0,29.7,86,30.7,85.7c1-0.3,36.1-18.2,36.1-19.6s-5.7-22.9-5.7-22.9s-19.2,14.2-19.6,12.5c-0.3-1.7-5.1-11.1-5.1-11.1  l13.2-8.4l-5.7-20.2c0,0-13.8,8.4-14.2,7.4c-0.3-1-3-9.8-3-9.8l23.3-12.5L259.6,35L216.7,61.3z"></path>
<path fill="none" stroke="#000000" stroke-width="3.0364" stroke-linecap="round" stroke-linejoin="round" stroke-miterlimit="10" d="  M274.1,32.7c0.3,2,19.2,89.7,19.2,89.7l38.8-13.8c0,0,0-21.3-0.7-22.6c-0.7-1.4-22.3,5.4-22.3,5.4s-9.8-66.1-10.8-66.1  C297.4,25.2,274.1,32.7,274.1,32.7z"></path>
<path fill="none" stroke="#000000" stroke-width="3.0364" stroke-linecap="round" stroke-linejoin="round" stroke-miterlimit="10" d="  M338.2,17.1c-1.1,0.4-0.3,90.1,1,89.7c1.4-0.3,20.6,1.3,20.6,0.3c0-1,0.7-32.1,0.7-32.1s32.4-8.8,31-39.5  C390.2,5,360.5,8.7,338.2,17.1z"></path>
<path fill="none" stroke="#000000" stroke-width="3.0364" stroke-linecap="round" stroke-linejoin="round" stroke-miterlimit="10" d="  M359.1,29.3c-0.3,2.4,1.7,24.3,1.7,24.3s11.1-2.7,10.1-14.5C369.9,27.3,359.1,29.3,359.1,29.3z"></path>
<path fill="none" stroke="#000000" stroke-width="3.0364" stroke-linecap="round" stroke-linejoin="round" stroke-miterlimit="10" d="  M417.5,5.3c-1.4,1.7-18.6,83.7-17.5,84c1,0.3,14.8,3.4,14.8,3.4l28.3-81.3L417.5,5.3z"></path>
<path fill="none" stroke="#000000" stroke-width="3.0364" stroke-linecap="round" stroke-linejoin="round" stroke-miterlimit="10" d="  M405.7,102.3c0,0-6.6-3.7-11.5,4.6c-4.9,8.3,1.2,13.8,5.9,13.7c4.7-0.2,11.6-4.7,11.5-9.8C411.4,105.7,406,102,405.7,102.3z"></path>
</svg>